<?xml version="1.0" encoding="utf-8" ?>
<svg baseProfile="full" height="369.03999999999996px" version="1.1" viewBox="0 0 918.96 369.03999999999996" width="918.96px" xmlns="http://www.w3.org/2000/svg" xmlns:ev="http://www.w3.org/2001/xml-events" xmlns:xlink="http://www.w3.org/1999/xlink"><defs /><style type="text/css"><![CDATA[
svg { font-family: Arial, 'DejaVu Sans', sans-serif; font-size: 11px; }
.outline { stroke: #000000; stroke-width: 1.2; fill: none; }
.thin { stroke: #000000; stroke-width: 1.0; fill: none; }
.dash { stroke: #000000; stroke-width: 1.2; fill: none; stroke-dasharray: 6,4; }
.label { fill: #000000; }
.title { font-size: 12px; font-weight: bold; }
.dim-text { fill: #000000; font-size: 10px; }
]]></style><rect fill="#ffffff" height="369.03999999999996" width="918.96" x="0" y="0" /><text class="label title" x="46" y="56">Block 1: DC Blocks=4</text><rect class="outline" height="97.52" width="242.32" x="50.0" y="86.0" /><rect class="thin" height="77.52" width="35.11533333333333" x="60.0" y="96.0" /><rect class="thin" height="77.52" width="35.11533333333333" x="97.44093333333333" y="96.0" /><rect class="thin" height="77.52" width="35.11533333333333" x="134.88186666666667" y="96.0" /><rect class="thin" height="77.52" width="35.11533333333333" x="172.3228" y="96.0" /><rect class="thin" height="77.52" width="35.11533333333333" x="209.76373333333333" y="96.0" /><rect class="thin" height="77.52" width="35.11533333333333" x="247.20466666666667" y="96.0" /><text class="label" x="56.0" y="104.0">DC Block</text><rect class="outline" height="97.52" width="242.32" x="304.32" y="86.0" /><rect class="thin" height="77.52" width="35.11533333333333" x="314.32" y="96.0" /><rect class="thin" height="77.52" width="35.11533333333333" x="351.76093333333336" y="96.0" /><rect class="thin" height="77.52" width="35.11533333333333" x="389.20186666666666" y="96.0" /><rect class="thin" height="77.52" width="35.11533333333333" x="426.64279999999997" y="96.0" /><rect class="thin" height="77.52" width="35.11533333333333" x="464.0837333333333" y="96.0" /><rect class="thin" height="77.52" width="35.11533333333333" x="501.5246666666667" y="96.0" /><text class="label" x="310.32" y="104.0">DC Block</text><rect class="outline" height="97.52" width="242.32" x="50.0" y="195.51999999999998" /><rect class="thin" height="77.52" width="35.11533333333333" x="60.0" y="205.51999999999998" /><rect class="thin" height="77.52" width="35.11533333333333" x="97.44093333333333" y="205.51999999999998" /><rect class="thin" height="77.52" width="35.11533333333333" x="134.88186666666667" y="205.51999999999998" /><rect class="thin" height="77.52" width="35.11533333333333" x="172.3228" y="205.51999999999998" /><rect class="thin" height="77.52" width="35.11533333333333" x="209.76373333333333" y="205.51999999999998" /><rect class="thin" height="77.52" width="35.11533333333333" x="247.20466666666667" y="205.51999999999998" /><text class="label" x="56.0" y="213.51999999999998">DC Block</text><rect class="outline" height="97.52" width="242.32" x="304.32" y="195.51999999999998" /><rect class="thin" height="77.52" width="35.11533333333333" x="314.32" y="205.51999999999998" /><rect class="thin" height="77.52" width="35.11533333333333" x="351.76093333333336" y="205.51999999999998" /><rect class="thin" height="77.52" width="35.11533333333333" x="389.20186666666666" y="205.51999999999998" /><rect class="thin" height="77.52" width="35.11533333333333" x="426.64279999999997" y="205.51999999999998" /><rect class="thin" height="77.52" width="35.11533333333333" x="464.0837333333333" y="205.51999999999998" /><rect class="thin" height="77.52" width="35.11533333333333" x="501.5246666666667" y="205.51999999999998" /><text class="label" x="310.32" y="213.51999999999998">DC Block</text><text class="label" x="50.0" y="311.03999999999996">BESS 1~4</text><rect class="outline" height="97.52" width="242.32" x="626.64" y="86.0" /><line class="thin" x1="759.9159999999999" x2="759.9159999999999" y1="86.0" y2="183.51999999999998" /><line class="thin" x1="832.612" x2="832.612" y1="86.0" y2="183.51999999999998" /><text class="dim-text" x="632.64" y="102.0">PCS Unit</text><text class="dim-text" x="765.9159999999999" y="102.0">Transformer</text><text class="dim-text" x="838.612" y="102.0">RMU</text><rect class="thin" height="40.763439999999996" width="54.64316000000001" x="634.63656" y="93.99656" /><rect class="thin" height="40.763439999999996" width="54.64316000000001" x="697.27628" y="93.99656" /><rect class="thin" height="40.763439999999996" width="54.64316000000001" x="634.63656" y="138.75828" /><rect class="thin" height="40.763439999999996" width="54.64316000000001" x="697.27628" y="138.75828" /><rect class="thin" height="85.88864" width="61.06464" x="765.73168" y="91.81568" /><rect class="thin" height="88.79648" width="27.62447999999999" x="836.97376" y="90.36176" /><text class="label" text-anchor="middle" x="747.8" y="138.76">PCS&amp;MVT SKID (AC Block)</text><text class="dim-text" x="632.64" y="173.51999999999998">33.0 kV / 690 V, 4.4 MVA</text><line class="thin" x1="292.32" x2="292.32" y1="86.0" y2="80.0" /><line class="thin" x1="304.32" x2="304.32" y1="86.0" y2="80.0" /><line class="thin" x1="292.32" x2="304.32" y1="80.0" y2="80.0" /><line class="thin" x1="292.32" x2="298.32" y1="80.0" y2="77.0" /><line class="thin" x1="292.32" x2="298.32" y1="80.0" y2="83.0" /><line class="thin" x1="304.32" x2="298.32" y1="80.0" y2="77.0" /><line class="thin" x1="304.32" x2="298.32" y1="80.0" y2="83.0" /><text class="dim-text" text-anchor="middle" x="298.32" y="76.0">0.3 m</text><line class="thin" x1="50.0" x2="44.0" y1="183.51999999999998" y2="183.51999999999998" /><line class="thin" x1="50.0" x2="44.0" y1="195.51999999999998" y2="195.51999999999998" /><line class="thin" x1="44.0" x2="44.0" y1="183.51999999999998" y2="195.51999999999998" /><line class="thin" x1="44.0" x2="41.0" y1="183.51999999999998" y2="189.51999999999998" /><line class="thin" x1="44.0" x2="47.0" y1="183.51999999999998" y2="189.51999999999998" /><line class="thin" x1="44.0" x2="41.0" y1="195.51999999999998" y2="189.51999999999998" /><line class="thin" x1="44.0" x2="47.0" y1="195.51999999999998" y2="189.51999999999998" /><text class="dim-text" x="50.0" y="189.51999999999998">0.3 m</text><line class="thin" x1="546.64" x2="546.64" y1="86.0" y2="64.0" /><line class="thin" x1="626.64" x2="626.64" y1="86.0" y2="64.0" /><line class="thin" x1="546.64" x2="626.64" y1="64.0" y2="64.0" /><line class="thin" x1="546.64" x2="552.64" y1="64.0" y2="61.0" /><line class="thin" x1="546.64" x2="552.64" y1="64.0" y2="67.0" /><line class="thin" x1="626.64" x2="620.64" y1="64.0" y2="61.0" /><line class="thin" x1="626.64" x2="620.64" y1="64.0" y2="67.0" /><text class="dim-text" text-anchor="middle" x="586.64" y="60.0">2.0 m</text></svg>