<?xml version="1.0" encoding="utf-8" ?>
<svg baseProfile="full" height="478.56px" version="1.1" viewBox="0 0 918.96 478.56" width="918.96px" xmlns="http://www.w3.org/2000/svg" xmlns:ev="http://www.w3.org/2001/xml-events" xmlns:xlink="http://www.w3.org/1999/xlink"><defs /><style type="text/css"><![CDATA[
svg { font-family: Arial, 'DejaVu Sans', sans-serif; font-size: 11px; }
.outline { stroke: #000000; stroke-width: 1.2; fill: none; }
.thin { stroke: #000000; stroke-width: 1.0; fill: none; }
.dash { stroke: #000000; stroke-width: 1.2; fill: none; stroke-dasharray: 6,4; }
.label { fill: #000000; }
.title { font-size: 12px; font-weight: bold; }
.dim-text { fill: #000000; font-size: 10px; }
]]></style><rect fill="#ffffff" height="478.56" width="918.96" x="0" y="0" /><text class="label title" x="46" y="56">Block 1: DC Blocks=6</text><rect class="outline" height="97.52" width="242.32" x="50.0" y="86.0" /><rect class="thin" height="34.132" width="29.0784" x="60.0" y="100.628" /><line class="thin" x1="81.80879999999999" x2="81.80879999999999" y1="109.161" y2="126.227" /><rect class="thin" height="39.008" width="17.447039999999998" x="264.87296" y="100.628" /><line class="thin" x1="266.87296" x2="280.32" y1="110.38" y2="110.38" /><line class="thin" x1="266.87296" x2="280.32" y1="120.132" y2="120.132" /><line class="thin" x1="266.87296" x2="280.32" y1="129.88400000000001" y2="129.88400000000001" /><rect class="thin" height="77.52" width="49.738368" x="99.0784" y="96.0" /><rect class="thin" height="77.52" width="49.738368" x="157.106496" y="96.0" /><rect class="thin" height="77.52" width="49.738368" x="215.134592" y="96.0" /><text class="label" x="56.0" y="104.0">DC Block</text><rect class="outline" height="97.52" width="242.32" x="304.32" y="86.0" /><rect class="thin" height="34.132" width="29.0784" x="314.32" y="100.628" /><line class="thin" x1="336.1288" x2="336.1288" y1="109.161" y2="126.227" /><rect class="thin" height="39.008" width="17.447039999999998" x="519.19296" y="100.628" /><line class="thin" x1="521.19296" x2="534.64" y1="110.38" y2="110.38" /><line class="thin" x1="521.19296" x2="534.64" y1="120.132" y2="120.132" /><line class="thin" x1="521.19296" x2="534.64" y1="129.88400000000001" y2="129.88400000000001" /><rect class="thin" height="77.52" width="49.738368" x="353.3984" y="96.0" /><rect class="thin" height="77.52" width="49.738368" x="411.426496" y="96.0" /><rect class="thin" height="77.52" width="49.738368" x="469.454592" y="96.0" /><text class="label" x="310.32" y="104.0">DC Block</text><rect class="outline" height="97.52" width="242.32" x="50.0" y="195.51999999999998" /><rect class="thin" height="34.132" width="29.0784" x="60.0" y="210.14799999999997" /><line class="thin" x1="81.80879999999999" x2="81.80879999999999" y1="218.68099999999995" y2="235.74699999999996" /><rect class="thin" height="39.008" width="17.447039999999998" x="264.87296" y="210.14799999999997" /><line class="thin" x1="266.87296" x2="280.32" y1="219.89999999999998" y2="219.89999999999998" /><line class="thin" x1="266.87296" x2="280.32" y1="229.65199999999996" y2="229.65199999999996" /><line class="thin" x1="266.87296" x2="280.32" y1="239.40399999999997" y2="239.40399999999997" /><rect class="thin" height="77.52" width="49.738368" x="99.0784" y="205.51999999999998" /><rect class="thin" height="77.52" width="49.738368" x="157.106496" y="205.51999999999998" /><rect class="thin" height="77.52" width="49.738368" x="215.134592" y="205.51999999999998" /><text class="label" x="56.0" y="213.51999999999998">DC Block</text><rect class="outline" height="97.52" width="242.32" x="304.32" y="195.51999999999998" /><rect class="thin" height="34.132" width="29.0784" x="314.32" y="210.14799999999997" /><line class="thin" x1="336.1288" x2="336.1288" y1="218.68099999999995" y2="235.74699999999996" /><rect class="thin" height="39.008" width="17.447039999999998" x="519.19296" y="210.14799999999997" /><line class="thin" x1="521.19296" x2="534.64" y1="219.89999999999998" y2="219.89999999999998" /><line class="thin" x1="521.19296" x2="534.64" y1="229.65199999999996" y2="229.65199999999996" /><line class="thin" x1="521.19296" x2="534.64" y1="239.40399999999997" y2="239.40399999999997" /><rect class="thin" height="77.52" width="49.738368" x="353.3984" y="205.51999999999998" /><rect class="thin" height="77.52" width="49.738368" x="411.426496" y="205.51999999999998" /><rect class="thin" height="77.52" width="49.738368" x="469.454592" y="205.51999999999998" /><text class="label" x="310.32" y="213.51999999999998">DC Block</text><rect class="outline" height="97.52" width="242.32" x="50.0" y="305.03999999999996" /><rect class="thin" height="34.132" width="29.0784" x="60.0" y="319.66799999999995" /><line class="thin" x1="81.80879999999999" x2="81.80879999999999" y1="328.20099999999996" y2="345.26699999999994" /><rect class="thin" height="39.008" width="17.447039999999998" x="264.87296" y="319.66799999999995" /><line class="thin" x1="266.87296" x2="280.32" y1="329.41999999999996" y2="329.41999999999996" /><line class="thin" x1="266.87296" x2="280.32" y1="339.17199999999997" y2="339.17199999999997" /><line class="thin" x1="266.87296" x2="280.32" y1="348.924" y2="348.924" /><rect class="thin" height="77.52" width="49.738368" x="99.0784" y="315.03999999999996" /><rect class="thin" height="77.52" width="49.738368" x="157.106496" y="315.03999999999996" /><rect class="thin" height="77.52" width="49.738368" x="215.134592" y="315.03999999999996" /><text class="label" x="56.0" y="323.03999999999996">DC Block</text><rect class="outline" height="97.52" width="242.32" x="304.32" y="305.03999999999996" /><rect class="thin" height="34.132" width="29.0784" x="314.32" y="319.66799999999995" /><line class="thin" x1="336.1288" x2="336.1288" y1="328.20099999999996" y2="345.26699999999994" /><rect class="thin" height="39.008" width="17.447039999999998" x="519.19296" y="319.66799999999995" /><line class="thin" x1="521.19296" x2="534.64" y1="329.41999999999996" y2="329.41999999999996" /><line class="thin" x1="521.19296" x2="534.64" y1="339.17199999999997" y2="339.17199999999997" /><line class="thin" x1="521.19296" x2="534.64" y1="348.924" y2="348.924" /><rect class="thin" height="77.52" width="49.738368" x="353.3984" y="315.03999999999996" /><rect class="thin" height="77.52" width="49.738368" x="411.426496" y="315.03999999999996" /><rect class="thin" height="77.52" width="49.738368" x="469.454592" y="315.03999999999996" /><text class="label" x="310.32" y="323.03999999999996">DC Block</text><text class="label" x="50.0" y="420.56">BESS 1~6</text><rect class="outline" height="97.52" width="242.32" x="626.64" y="86.0" /><line class="thin" x1="759.9159999999999" x2="759.9159999999999" y1="86.0" y2="183.51999999999998" /><line class="thin" x1="832.612" x2="832.612" y1="86.0" y2="183.51999999999998" /><text class="dim-text" x="632.64" y="102.0">PCS</text><text class="dim-text" x="765.9159999999999" y="102.0">Transformer</text><text class="dim-text" x="838.612" y="102.0">RMU</text><rect class="thin" height="81.52687999999999" width="33.76325333333333" x="634.63656" y="93.99656" /><rect class="thin" height="81.52687999999999" width="33.76325333333333" x="676.3963733333334" y="93.99656" /><rect class="thin" height="81.52687999999999" width="33.76325333333333" x="718.1561866666667" y="93.99656" /><rect class="thin" height="85.88864" width="61.06464" x="765.73168" y="91.81568" /><rect class="thin" height="88.79648" width="27.62447999999999" x="836.97376" y="90.36176" /><text class="label" text-anchor="middle" x="747.8" y="138.76">PCS&amp;MVT SKID (AC Block)</text><text class="dim-text" x="632.64" y="173.51999999999998">33.0 kV / 690 V, 7.6 MVA</text><line class="thin" x1="292.32" x2="292.32" y1="86.0" y2="80.0" /><line class="thin" x1="304.32" x2="304.32" y1="86.0" y2="80.0" /><line class="thin" x1="292.32" x2="304.32" y1="80.0" y2="80.0" /><line class="thin" x1="292.32" x2="298.32" y1="80.0" y2="77.0" /><line class="thin" x1="292.32" x2="298.32" y1="80.0" y2="83.0" /><line class="thin" x1="304.32" x2="298.32" y1="80.0" y2="77.0" /><line class="thin" x1="304.32" x2="298.32" y1="80.0" y2="83.0" /><text class="dim-text" text-anchor="middle" x="298.32" y="76.0">0.3 m</text><line class="thin" x1="50.0" x2="44.0" y1="183.51999999999998" y2="183.51999999999998" /><line class="thin" x1="50.0" x2="44.0" y1="195.51999999999998" y2="195.51999999999998" /><line class="thin" x1="44.0" x2="44.0" y1="183.51999999999998" y2="195.51999999999998" /><line class="thin" x1="44.0" x2="41.0" y1="183.51999999999998" y2="189.51999999999998" /><line class="thin" x1="44.0" x2="47.0" y1="183.51999999999998" y2="189.51999999999998" /><line class="thin" x1="44.0" x2="41.0" y1="195.51999999999998" y2="189.51999999999998" /><line class="thin" x1="44.0" x2="47.0" y1="195.51999999999998" y2="189.51999999999998" /><text class="dim-text" x="50.0" y="189.51999999999998">0.3 m</text><line class="thin" x1="546.64" x2="546.64" y1="86.0" y2="64.0" /><line class="thin" x1="626.64" x2="626.64" y1="86.0" y2="64.0" /><line class="thin" x1="546.64" x2="626.64" y1="64.0" y2="64.0" /><line class="thin" x1="546.64" x2="552.64" y1="64.0" y2="61.0" /><line class="thin" x1="546.64" x2="552.64" y1="64.0" y2="67.0" /><line class="thin" x1="626.64" x2="620.64" y1="64.0" y2="61.0" /><line class="thin" x1="626.64" x2="620.64" y1="64.0" y2="67.0" /><text class="dim-text" text-anchor="middle" x="586.64" y="60.0">2.0 m</text></svg>