<?xml version="1.0" encoding="utf-8" ?>
<svg baseProfile="full" height="478.56px" version="1.1" viewBox="0 0 918.96 478.56" width="918.96px" xmlns="http://www.w3.org/2000/svg" xmlns:ev="http://www.w3.org/2001/xml-events" xmlns:xlink="http://www.w3.org/1999/xlink"><defs /><style type="text/css"><![CDATA[
svg { font-family: Arial, Helvetica, sans-serif; font-size: 11px; }
.outline { stroke: #000000; stroke-width: 1.2; fill: none; }
.thin { stroke: #000000; stroke-width: 1.0; fill: none; }
.dash { stroke: #000000; stroke-width: 1.2; fill: none; stroke-dasharray: 6,4; }
.label { fill: #000000; }
.title { font-size: 12px; font-weight: bold; }
.dim-text { fill: #000000; font-size: 10px; }
]]></style><text class="label title" x="46" y="56">Block 1: DC Blocks=6</text><rect class="outline" height="97.52" width="242.32" x="50.0" y="86.0" /><rect class="thin" height="33.76" width="106.16" x="60.0" y="96.0" /><rect class="thin" height="33.76" width="106.16" x="176.16" y="96.0" /><rect class="thin" height="33.76" width="106.16" x="60.0" y="139.76" /><rect class="thin" height="33.76" width="106.16" x="176.16" y="139.76" /><text class="label" x="56.0" y="104.0">DC Block</text><rect class="outline" height="97.52" width="242.32" x="304.32" y="86.0" /><rect class="thin" height="33.76" width="106.16" x="314.32" y="96.0" /><rect class="thin" height="33.76" width="106.16" x="430.48" y="96.0" /><rect class="thin" height="33.76" width="106.16" x="314.32" y="139.76" /><rect class="thin" height="33.76" width="106.16" x="430.48" y="139.76" /><text class="label" x="310.32" y="104.0">DC Block</text><rect class="outline" height="97.52" width="242.32" x="50.0" y="195.51999999999998" /><rect class="thin" height="33.76" width="106.16" x="60.0" y="205.51999999999998" /><rect class="thin" height="33.76" width="106.16" x="176.16" y="205.51999999999998" /><rect class="thin" height="33.76" width="106.16" x="60.0" y="249.27999999999997" /><rect class="thin" height="33.76" width="106.16" x="176.16" y="249.27999999999997" /><text class="label" x="56.0" y="213.51999999999998">DC Block</text><rect class="outline" height="97.52" width="242.32" x="304.32" y="195.51999999999998" /><rect class="thin" height="33.76" width="106.16" x="314.32" y="205.51999999999998" /><rect class="thin" height="33.76" width="106.16" x="430.48" y="205.51999999999998" /><rect class="thin" height="33.76" width="106.16" x="314.32" y="249.27999999999997" /><rect class="thin" height="33.76" width="106.16" x="430.48" y="249.27999999999997" /><text class="label" x="310.32" y="213.51999999999998">DC Block</text><rect class="outline" height="97.52" width="242.32" x="50.0" y="305.03999999999996" /><rect class="thin" height="33.76" width="106.16" x="60.0" y="315.03999999999996" /><rect class="thin" height="33.76" width="106.16" x="176.16" y="315.03999999999996" /><rect class="thin" height="33.76" width="106.16" x="60.0" y="358.79999999999995" /><rect class="thin" height="33.76" width="106.16" x="176.16" y="358.79999999999995" /><text class="label" x="56.0" y="323.03999999999996">DC Block</text><rect class="outline" height="97.52" width="242.32" x="304.32" y="305.03999999999996" /><rect class="thin" height="33.76" width="106.16" x="314.32" y="315.03999999999996" /><rect class="thin" height="33.76" width="106.16" x="430.48" y="315.03999999999996" /><rect class="thin" height="33.76" width="106.16" x="314.32" y="358.79999999999995" /><rect class="thin" height="33.76" width="106.16" x="430.48" y="358.79999999999995" /><text class="label" x="310.32" y="323.03999999999996">DC Block</text><text class="label" x="50.0" y="420.56">BESS 1~6</text><rect class="outline" height="97.52" width="242.32" x="626.64" y="86.0" /><line class="thin" x1="707.4133333333333" x2="707.4133333333333" y1="86.0" y2="183.51999999999998" /><line class="thin" x1="788.1866666666666" x2="788.1866666666666" y1="86.0" y2="183.51999999999998" /><text class="dim-text" x="632.64" y="102.0">PCS</text><text class="dim-text" x="713.4133333333333" y="102.0">Transformer</text><text class="dim-text" x="794.1866666666666" y="102.0">RMU</text><text class="label" text-anchor="middle" x="747.8" y="138.76">PCS&amp;MVT SKID (AC Block)</text><text class="dim-text" x="632.64" y="173.51999999999998">33.0 kV / 690 V, 7.6 MVA</text><line class="thin" x1="292.32" x2="292.32" y1="86.0" y2="80.0" /><line class="thin" x1="304.32" x2="304.32" y1="86.0" y2="80.0" /><line class="thin" x1="292.32" x2="304.32" y1="80.0" y2="80.0" /><line class="thin" x1="292.32" x2="298.32" y1="80.0" y2="77.0" /><line class="thin" x1="292.32" x2="298.32" y1="80.0" y2="83.0" /><line class="thin" x1="304.32" x2="298.32" y1="80.0" y2="77.0" /><line class="thin" x1="304.32" x2="298.32" y1="80.0" y2="83.0" /><text class="dim-text" text-anchor="middle" x="298.32" y="76.0">0.3 m</text><line class="thin" x1="50.0" x2="44.0" y1="183.51999999999998" y2="183.51999999999998" /><line class="thin" x1="50.0" x2="44.0" y1="195.51999999999998" y2="195.51999999999998" /><line class="thin" x1="44.0" x2="44.0" y1="183.51999999999998" y2="195.51999999999998" /><line class="thin" x1="44.0" x2="41.0" y1="183.51999999999998" y2="189.51999999999998" /><line class="thin" x1="44.0" x2="47.0" y1="183.51999999999998" y2="189.51999999999998" /><line class="thin" x1="44.0" x2="41.0" y1="195.51999999999998" y2="189.51999999999998" /><line class="thin" x1="44.0" x2="47.0" y1="195.51999999999998" y2="189.51999999999998" /><text class="dim-text" x="50.0" y="189.51999999999998">0.3 m</text><line class="thin" x1="546.64" x2="546.64" y1="86.0" y2="64.0" /><line class="thin" x1="626.64" x2="626.64" y1="86.0" y2="64.0" /><line class="thin" x1="546.64" x2="626.64" y1="64.0" y2="64.0" /><line class="thin" x1="546.64" x2="552.64" y1="64.0" y2="61.0" /><line class="thin" x1="546.64" x2="552.64" y1="64.0" y2="67.0" /><line class="thin" x1="626.64" x2="620.64" y1="64.0" y2="61.0" /><line class="thin" x1="626.64" x2="620.64" y1="64.0" y2="67.0" /><text class="dim-text" text-anchor="middle" x="586.64" y="60.0">2.0 m</text></svg>