<?xml version="1.0" encoding="utf-8" ?>
<svg baseProfile="full" height="760px" version="1.1" viewBox="0 0 1750 760" width="1750px" xmlns="http://www.w3.org/2000/svg" xmlns:ev="http://www.w3.org/2001/xml-events" xmlns:xlink="http://www.w3.org/1999/xlink"><defs /><style type="text/css"><![CDATA[
svg { font-family: Arial, Helvetica, sans-serif; font-size: 11px; }
.outline { stroke: #000000; stroke-width: 1.4; fill: none; }
.thin { stroke: #000000; stroke-width: 1.0; fill: none; }
.thick { stroke: #000000; stroke-width: 2.0; fill: none; }
.dash { stroke: #000000; stroke-width: 1.4; fill: none; stroke-dasharray: 6,4; }
.label { fill: #000000; }
.title { font-size: 12px; font-weight: bold; }
.small { font-size: 10px; }
]]></style><rect class="outline" height="230" width="420" x="40" y="40" /><line class="thin" x1="190" x2="190" y1="40" y2="270" /><line class="thin" x1="40" x2="460" y1="60" y2="60" /><line class="thin" x1="40" x2="460" y1="78" y2="78" /><text class="label title" x="46" y="54">Equipment List</text><text class="label" x="46" y="73">Item</text><text class="label" x="196" y="73">Spec</text><text class="label" x="46" y="91">MV Cable</text><text class="label" x="196" y="91">TBD</text><line class="thin" x1="40" x2="460" y1="94" y2="94" /><text class="label" x="46" y="107">Ring Main Unit (RMU)</text><text class="label" x="196" y="107">24 kV class, 630 A, 25.0 kA/3s, CT</text><text class="label" x="196" y="123">200/1, 5P20, 10 VA</text><line class="thin" x1="40" x2="460" y1="126" y2="126" /><text class="label" x="46" y="139">Transformer</text><text class="label" x="196" y="139">7.6 MVA, 33.0 kV/690 V, Dyn11,</text><text class="label" x="196" y="155">Uk=7.0%, ONAN</text><line class="thin" x1="40" x2="460" y1="158" y2="158" /><text class="label" x="46" y="171">LV Busbar</text><text class="label" x="196" y="171">2500 A, 25.0 kA</text><line class="thin" x1="40" x2="460" y1="174" y2="174" /><text class="label" x="46" y="187">PCS</text><text class="label" x="196" y="187">1720 kW x 4, LV 690 V</text><line class="thin" x1="40" x2="460" y1="190" y2="190" /><text class="label" x="46" y="203">LV Cable</text><text class="label" x="196" y="203">TBD</text><line class="thin" x1="40" x2="460" y1="206" y2="206" /><text class="label" x="46" y="219">DC Cable</text><text class="label" x="196" y="219">TBD</text><line class="thin" x1="40" x2="460" y1="222" y2="222" /><text class="label" x="46" y="235">DC Fuse</text><text class="label" x="196" y="235">TBD</text><line class="thin" x1="40" x2="460" y1="238" y2="238" /><text class="label" x="46" y="251">Battery Storage Bank</text><text class="label" x="196" y="251">5.000 MWh each x 6</text><line class="thin" x1="40" x2="460" y1="254" y2="254" /><text class="label" x="46" y="267">DC Block Allocation</text><text class="label" x="196" y="267">F1=2, F2=2, F3=1, F4=1</text><line class="thin" x1="40" x2="460" y1="270" y2="270" /><rect class="dash" height="388" width="1210" x="500" y="40" /><text class="label title" x="508" y="58">PCS&amp;MVT SKID (AC Block)</text><text class="label" x="560" y="85">To Switchgear</text><text class="label" text-anchor="end" x="1650" y="85">To Other RMU</text><line class="thin" x1="570" x2="570" y1="95" y2="115" /><line class="thin" x1="1640" x2="1640" y1="95" y2="115" /><text class="label" x="580" y="110">RMU</text><line class="thin" x1="580" x2="580" y1="115" y2="155" /><line class="thin" x1="650" x2="650" y1="115" y2="155" /><line class="thin" x1="580" x2="650" y1="135" y2="135" /><line class="thin" x1="608" x2="620" y1="129" y2="141" /><line class="thin" x1="620" x2="632" y1="141" y2="141" /><line class="thin" x1="615" x2="615" y1="159" y2="169" /><line class="thin" x1="607" x2="623" y1="169" y2="169" /><line class="thin" x1="609" x2="621" y1="173" y2="173" /><line class="thin" x1="611" x2="619" y1="177" y2="177" /><circle class="outline" cx="1065.0" cy="195" r="18" /><circle class="outline" cx="1115.0" cy="195" r="18" /><line class="thin" x1="1083.0" x2="1097.0" y1="195" y2="195" /><text class="label" x="1145.0" y="182">Transformer</text><text class="label" x="1145.0" y="198">33.0 kV/690 V</text><text class="label" x="1145.0" y="214">7.6 MVA</text><text class="label" x="1145.0" y="230">Dyn11</text><text class="label" x="1145.0" y="246">Uk=7.0%</text><text class="label" x="1145.0" y="262">ONAN</text><line class="thick" x1="580" x2="1630" y1="270" y2="270" /><text class="label" x="580" y="262">LV Busbar</text><rect class="outline" height="54" width="160.0" x="616.25" y="294" /><text class="label" x="624.25" y="314">PCS-1</text><text class="label" x="624.25" y="332">1720 kW</text><line class="thin" x1="696.25" x2="696.25" y1="270" y2="294" /><rect class="outline" height="54" width="160.0" x="888.75" y="294" /><text class="label" x="896.75" y="314">PCS-2</text><text class="label" x="896.75" y="332">1720 kW</text><line class="thin" x1="968.75" x2="968.75" y1="270" y2="294" /><rect class="outline" height="54" width="160.0" x="1161.25" y="294" /><text class="label" x="1169.25" y="314">PCS-3</text><text class="label" x="1169.25" y="332">1720 kW</text><line class="thin" x1="1241.25" x2="1241.25" y1="270" y2="294" /><rect class="outline" height="54" width="160.0" x="1433.75" y="294" /><text class="label" x="1441.75" y="314">PCS-4</text><text class="label" x="1441.75" y="332">1720 kW</text><line class="thin" x1="1513.75" x2="1513.75" y1="270" y2="294" /><line class="thick" x1="580" x2="1630" y1="378" y2="378" /><text class="label" x="580" y="370">DC BUSBAR</text><line class="thin" x1="696.25" x2="696.25" y1="348" y2="378" /><rect class="outline" height="10" width="18" x="687.25" y="358.0" /><line class="thin" x1="968.75" x2="968.75" y1="348" y2="378" /><rect class="outline" height="10" width="18" x="959.75" y="358.0" /><line class="thin" x1="1241.25" x2="1241.25" y1="348" y2="378" /><rect class="outline" height="10" width="18" x="1232.25" y="358.0" /><line class="thin" x1="1513.75" x2="1513.75" y1="348" y2="378" /><rect class="outline" height="10" width="18" x="1504.75" y="358.0" /><rect class="dash" height="150" width="1130" x="540" y="468" /><text class="label title" x="548" y="484">Battery Storage Bank</text><line class="thin" x1="696.25" x2="696.25" y1="378" y2="508" /><text class="small" x="690.25" y="504">F1</text><rect class="outline" height="60" width="160.0" x="616.25" y="518" /><text class="label" x="622.25" y="536">F1</text><text class="small" x="622.25" y="552">DC Block x 2</text><text class="small" x="622.25" y="568">5.000 MWh each</text><line class="thin" x1="968.75" x2="968.75" y1="378" y2="508" /><text class="small" x="962.75" y="504">F2</text><rect class="outline" height="60" width="160.0" x="888.75" y="518" /><text class="label" x="894.75" y="536">F2</text><text class="small" x="894.75" y="552">DC Block x 2</text><text class="small" x="894.75" y="568">5.000 MWh each</text><line class="thin" x1="1241.25" x2="1241.25" y1="378" y2="508" /><text class="small" x="1235.25" y="504">F3</text><rect class="outline" height="60" width="160.0" x="1161.25" y="518" /><text class="label" x="1167.25" y="536">F3</text><text class="small" x="1167.25" y="552">DC Block x 1</text><text class="small" x="1167.25" y="568">5.000 MWh each</text><line class="thin" x1="1513.75" x2="1513.75" y1="378" y2="508" /><text class="small" x="1507.75" y="504">F4</text><rect class="outline" height="60" width="160.0" x="1433.75" y="518" /><text class="label" x="1439.75" y="536">F4</text><text class="small" x="1439.75" y="552">DC Block x 1</text><text class="small" x="1439.75" y="568">5.000 MWh each</text><rect class="outline" height="78" width="480.0" x="1230.0" y="642" /><text class="label title" x="1238.0" y="660">Allocation Summary (AC Block group)</text><text class="label" x="1238.0" y="678">Battery Storage Bank: 6 blocks @ 5.000 MWh each</text><text class="label" x="1238.0" y="696">PCS count: 4, LV 690 V</text><text class="label" x="1238.0" y="714">Allocation: F1=2, F2=2, F3=1, F4=1</text></svg>