<?xml version="1.0" encoding="utf-8" ?>
<svg baseProfile="full" height="958.0px" version="1.1" viewBox="0 0 1400 958.0" width="1400px" xmlns="http://www.w3.org/2000/svg" xmlns:ev="http://www.w3.org/2001/xml-events" xmlns:xlink="http://www.w3.org/1999/xlink"><defs /><style type="text/css"><![CDATA[
svg { font-family: Arial, 'DejaVu Sans', sans-serif; font-size: 11.0px; }
.outline { stroke: #000000; stroke-width: 1.4; fill: none; }
.thin { stroke: #000000; stroke-width: 1.0; fill: none; }
.thick { stroke: #000000; stroke-width: 2.0; fill: none; }
.dash { stroke: #000000; stroke-width: 1.4; fill: none; stroke-dasharray: 6,4; }
.label { fill: #000000; }
.title { font-size: 12.0px; font-weight: bold; }
.small { font-size: 10.0px; }
]]></style><rect fill="#ffffff" height="958.0" width="1400" x="0" y="0" /><rect class="outline" height="230.0" width="420" x="40" y="40" /><line class="thin" x1="190" x2="190" y1="40" y2="270.0" /><line class="thin" x1="40" x2="460" y1="60.0" y2="60.0" /><line class="thin" x1="40" x2="460" y1="78.0" y2="78.0" /><text class="label title" x="46" y="54">Equipment List</text><text class="label" x="46" y="73.0">Item</text><text class="label" x="196" y="73.0">Spec</text><text class="label" x="46" y="91.0">MV Cable</text><text class="label" x="196" y="91.0">TBD</text><line class="thin" x1="40" x2="460" y1="94.0" y2="94.0" /><text class="label" x="46" y="107.0">Ring Main Unit (RMU)</text><text class="label" x="196" y="107.0">24 kV class, 630 A, 25.0 kA/3s, CT</text><text class="label" x="196" y="123.0">200/1, 5P20, 10 VA</text><line class="thin" x1="40" x2="460" y1="126.0" y2="126.0" /><text class="label" x="46" y="139.0">Transformer</text><text class="label" x="196" y="139.0">4.4 MVA, 33.0 kV/690 V, Dyn11,</text><text class="label" x="196" y="155.0">Uk=7.0%, ONAN</text><line class="thin" x1="40" x2="460" y1="158.0" y2="158.0" /><text class="label" x="46" y="171.0">LV Busbar</text><text class="label" x="196" y="171.0">2500 A, 25.0 kA</text><line class="thin" x1="40" x2="460" y1="174.0" y2="174.0" /><text class="label" x="46" y="187.0">PCS</text><text class="label" x="196" y="187.0">1000 kW x 4, LV 690 V</text><line class="thin" x1="40" x2="460" y1="190.0" y2="190.0" /><text class="label" x="46" y="203.0">LV Cable</text><text class="label" x="196" y="203.0">TBD</text><line class="thin" x1="40" x2="460" y1="206.0" y2="206.0" /><text class="label" x="46" y="219.0">DC Cable</text><text class="label" x="196" y="219.0">TBD</text><line class="thin" x1="40" x2="460" y1="222.0" y2="222.0" /><text class="label" x="46" y="235.0">DC Fuse</text><text class="label" x="196" y="235.0">TBD</text><line class="thin" x1="40" x2="460" y1="238.0" y2="238.0" /><text class="label" x="46" y="251.0">Battery Storage Bank</text><text class="label" x="196" y="251.0">5.000 MWh each x 4</text><line class="thin" x1="40" x2="460" y1="254.0" y2="254.0" /><text class="label" x="46" y="267.0">DC Block Allocation</text><text class="label" x="196" y="267.0">F1=1, F2=1, F3=1, F4=1</text><line class="thin" x1="40" x2="460" y1="270.0" y2="270.0" /><rect class="dash" height="418" width="860" x="500" y="40" /><text class="label title" x="508" y="58">PCS&amp;MVT SKID (AC Block)</text><text class="label" x="560" y="85">To Switchgear</text><text class="label" text-anchor="end" x="1300" y="85">To Other RMU</text><line class="thin" x1="570" x2="570" y1="95" y2="115" /><line class="thin" x1="1290" x2="1290" y1="95" y2="115" /><text class="label" x="580" y="110">RMU</text><line class="thin" x1="580" x2="580" y1="115" y2="155" /><line class="thin" x1="650" x2="650" y1="115" y2="155" /><line class="thin" x1="580" x2="650" y1="135" y2="135" /><line class="thin" x1="608" x2="620" y1="129" y2="141" /><line class="thin" x1="620" x2="632" y1="141" y2="141" /><line class="thin" x1="615" x2="615" y1="159" y2="169" /><line class="thin" x1="607" x2="623" y1="169" y2="169" /><line class="thin" x1="609" x2="621" y1="173" y2="173" /><line class="thin" x1="611" x2="619" y1="177" y2="177" /><circle class="outline" cx="890.0" cy="195" r="18" /><circle class="outline" cx="940.0" cy="195" r="18" /><line class="thin" x1="908.0" x2="922.0" y1="195" y2="195" /><text class="label" x="970.0" y="182">Transformer</text><text class="label" x="970.0" y="198">33.0 kV/690 V</text><text class="label" x="970.0" y="214">4.4 MVA</text><text class="label" x="970.0" y="230">Dyn11</text><text class="label" x="970.0" y="246">Uk=7.0%</text><text class="label" x="970.0" y="262">ONAN</text><line class="thick" x1="580" x2="1280" y1="270" y2="270" /><text class="label" x="580" y="262">LV Busbar</text><rect class="outline" height="54" width="160.0" x="572.5" y="294" /><text class="label" x="580.5" y="314">PCS-1</text><text class="label" x="580.5" y="332">1000 kW</text><line class="thin" x1="652.5" x2="652.5" y1="270" y2="294" /><rect class="outline" height="54" width="160.0" x="757.5" y="294" /><text class="label" x="765.5" y="314">PCS-2</text><text class="label" x="765.5" y="332">1000 kW</text><line class="thin" x1="837.5" x2="837.5" y1="270" y2="294" /><rect class="outline" height="54" width="160.0" x="942.5" y="294" /><text class="label" x="950.5" y="314">PCS-3</text><text class="label" x="950.5" y="332">1000 kW</text><line class="thin" x1="1022.5" x2="1022.5" y1="270" y2="294" /><rect class="outline" height="54" width="160.0" x="1127.5" y="294" /><text class="label" x="1135.5" y="314">PCS-4</text><text class="label" x="1135.5" y="332">1000 kW</text><line class="thin" x1="1207.5" x2="1207.5" y1="270" y2="294" /><line class="thick" x1="617.5" x2="687.5" y1="376" y2="376" /><text class="small" x="597.5" y="368">BUSBAR A (Circuit A)</text><line class="thick" x1="617.5" x2="687.5" y1="398" y2="398" /><text class="small" x="597.5" y="390">BUSBAR B (Circuit B)</text><line class="thin" x1="652.5" x2="652.5" y1="348" y2="376" /><rect class="outline" height="10" width="18" x="643.5" y="357.0" /><line class="thick" x1="802.5" x2="872.5" y1="376" y2="376" /><text class="small" x="782.5" y="368">BUSBAR A (Circuit A)</text><line class="thick" x1="802.5" x2="872.5" y1="398" y2="398" /><text class="small" x="782.5" y="390">BUSBAR B (Circuit B)</text><line class="thin" x1="837.5" x2="837.5" y1="348" y2="376" /><rect class="outline" height="10" width="18" x="828.5" y="357.0" /><line class="thick" x1="987.5" x2="1057.5" y1="376" y2="376" /><text class="small" x="967.5" y="368">BUSBAR A (Circuit A)</text><line class="thick" x1="987.5" x2="1057.5" y1="398" y2="398" /><text class="small" x="967.5" y="390">BUSBAR B (Circuit B)</text><line class="thin" x1="1022.5" x2="1022.5" y1="348" y2="376" /><rect class="outline" height="10" width="18" x="1013.5" y="357.0" /><line class="thick" x1="1172.5" x2="1242.5" y1="376" y2="376" /><text class="small" x="1152.5" y="368">BUSBAR A (Circuit A)</text><line class="thick" x1="1172.5" x2="1242.5" y1="398" y2="398" /><text class="small" x="1152.5" y="390">BUSBAR B (Circuit B)</text><line class="thin" x1="1207.5" x2="1207.5" y1="348" y2="376" /><rect class="outline" height="10" width="18" x="1198.5" y="357.0" /><rect class="dash" height="246.0" width="780" x="540" y="498" /><text class="label title" x="548" y="514">Battery Storage Bank</text><rect class="outline" height="54" width="160.0" x="572.5" y="438" /><text class="small" x="578.5" y="458">DC Block #1 (5.000 MWh)</text><text class="small" x="578.5" y="476">2 circuits (A/B)</text><line class="thin" x1="628.5" x2="628.5" y1="438" y2="376" /><line class="thin" x1="628.5" x2="652.5" y1="376" y2="376" /><line class="thin" x1="676.5" x2="676.5" y1="438" y2="398" /><line class="thin" x1="676.5" x2="652.5" y1="398" y2="398" /><rect class="outline" height="54" width="160.0" x="757.5" y="438" /><text class="small" x="763.5" y="458">DC Block #2 (5.000 MWh)</text><text class="small" x="763.5" y="476">2 circuits (A/B)</text><line class="thin" x1="813.5" x2="813.5" y1="438" y2="376" /><line class="thin" x1="813.5" x2="837.5" y1="376" y2="376" /><line class="thin" x1="861.5" x2="861.5" y1="438" y2="398" /><line class="thin" x1="861.5" x2="837.5" y1="398" y2="398" /><rect class="outline" height="54" width="160.0" x="942.5" y="438" /><text class="small" x="948.5" y="458">DC Block #3 (5.000 MWh)</text><text class="small" x="948.5" y="476">2 circuits (A/B)</text><line class="thin" x1="998.5" x2="998.5" y1="438" y2="376" /><line class="thin" x1="998.5" x2="1022.5" y1="376" y2="376" /><line class="thin" x1="1046.5" x2="1046.5" y1="438" y2="398" /><line class="thin" x1="1046.5" x2="1022.5" y1="398" y2="398" /><rect class="outline" height="54" width="160.0" x="1127.5" y="438" /><text class="small" x="1133.5" y="458">DC Block #4 (5.000 MWh)</text><text class="small" x="1133.5" y="476">2 circuits (A/B)</text><line class="thin" x1="1183.5" x2="1183.5" y1="438" y2="376" /><line class="thin" x1="1183.5" x2="1207.5" y1="376" y2="376" /><line class="thin" x1="1231.5" x2="1231.5" y1="438" y2="398" /><line class="thin" x1="1231.5" x2="1207.5" y1="398" y2="398" /><text class="small" x="540" y="764.0">Each PCS has independent DC BUSBAR A &amp; B; 4 DC blocks evenly allocated; each block connects independently to its assigned PCS.</text><text class="small" x="548" y="720.0">Each DC block provides Circuit A and Circuit B.</text><rect class="outline" height="150" width="480.0" x="880.0" y="768.0" /><text class="label title" x="888.0" y="786.0">Allocation Summary (AC Block group)</text><text class="label" x="888.0" y="804.0">Battery Storage Bank: 4 blocks @ 5.000 MWh each</text><text class="label" x="888.0" y="822.0">PCS count: 4, LV 690 V</text><text class="label" x="888.0" y="840.0">Group A feeders: F1=1, F2=1 (total 2)</text><text class="label" x="888.0" y="858.0">Group B feeders: F3=1, F4=1 (total 2)</text><text class="label" x="888.0" y="876.0">Allocation: F1=1, F2=1, F3=1, F4=1</text><text class="label" x="888.0" y="894.0">Counts indicate allocation for sizing/configuration; detailed DC</text><text class="label" x="888.0" y="912.0">wiring is not represented.</text></svg>