<?xml version="1.0" encoding="utf-8" ?>
<svg baseProfile="full" height="868.0px" version="1.1" viewBox="0 0 1400 868.0" width="1400px" xmlns="http://www.w3.org/2000/svg" xmlns:ev="http://www.w3.org/2001/xml-events" xmlns:xlink="http://www.w3.org/1999/xlink"><defs /><style type="text/css"><![CDATA[
svg { font-family: Arial, 'DejaVu Sans', sans-serif; font-size: 11px; }
.outline { stroke: #e5e7eb; stroke-width: 1.4; fill: none; }
.thin { stroke: #cbd5e1; stroke-width: 1.0; fill: none; }
.thick { stroke: #e5e7eb; stroke-width: 2.0; fill: none; }
.dash { stroke: #22d3ee; stroke-width: 1.4; fill: none; stroke-dasharray: 6,4; }
.busbar { stroke: #ef4444; stroke-width: 2.0; fill: none; }
.label { fill: #e5e7eb; }
.title { font-size: 12px; font-weight: bold; fill: #f8fafc; }
.small { font-size: 10px; fill: #e5e7eb; }
]]></style><rect fill="#0b0f13" height="868.0" width="1400" x="0" y="0" /><rect class="outline" height="466" width="420.0" x="40.0" y="40" /><text class="label title" x="50.0" y="65">Power Cable</text><text class="label small" x="62.0" y="81">TBD</text><line class="thin" x1="40.0" x2="460.0" y1="87.0" y2="87.0" /><text class="label title" x="50.0" y="103">Ring Main Unit (SF6)</text><text class="label small" x="62.0" y="119">LBS: 36kV, 630A, 25.0kA/3s</text><text class="label small" x="62.0" y="135">CB: 36kV, 630A, 25.0kA/3s</text><text class="label small" x="62.0" y="151">CT: 300/1, 5P20, 5VA</text><text class="label small" x="62.0" y="167">With DS, ES, &amp; Live Display</text><line class="thin" x1="40.0" x2="460.0" y1="173.0" y2="173.0" /><text class="label title" x="50.0" y="189">Power Cable</text><text class="label small" x="62.0" y="205">TBD</text><line class="thin" x1="40.0" x2="460.0" y1="211.0" y2="211.0" /><text class="label title" x="50.0" y="227">Step-up Transformer (OIL)</text><text class="label small" x="62.0" y="243">7667 kVA, Dyn11</text><text class="label small" x="62.0" y="259">33kV+/-2x2.5%/690V</text><text class="label small" x="62.0" y="275">Ud=7.0%, ONAN</text><line class="thin" x1="40.0" x2="460.0" y1="281.0" y2="281.0" /><text class="label title" x="50.0" y="297">Connecting Copper Tape</text><text class="label small" x="62.0" y="313">AC690V, 6420A, 25.0kA</text><line class="thin" x1="40.0" x2="460.0" y1="319.0" y2="319.0" /><text class="label title" x="50.0" y="335">Power Converter System (PCS)</text><text class="label small" x="62.0" y="351">CB: AC690V, 1440A, 25.0kA</text><text class="label small" x="62.0" y="367">PCS-1725kW x 4</text><text class="label small" x="62.0" y="383">AC690V/50/60Hz, DC1200V</text><text class="label small" x="62.0" y="399">DS: DC1200V, 1438A</text><text class="label small" x="62.0" y="415">FUSE: TBD</text><line class="thin" x1="40.0" x2="460.0" y1="421.0" y2="421.0" /><text class="label title" x="50.0" y="437">Power Cable</text><text class="label small" x="62.0" y="453">TBD</text><line class="thin" x1="40.0" x2="460.0" y1="459.0" y2="459.0" /><text class="label title" x="50.0" y="475">Battery Storage Bank (BAT)</text><text class="label small" x="62.0" y="491">1~4 BESS</text><rect class="dash" height="518.0" width="860.0" x="500.0" y="40" /><text class="label title" text-anchor="end" x="1352.0" y="58">AC Block (PCS&amp;MV SKID)</text><text class="label" x="560.0" y="78">To 33kV Switchgear</text><text class="label" text-anchor="end" x="1300.0" y="78">To Other RMU</text><line class="thin" x1="550.0" x2="1310.0" y1="160" y2="160" /><circle class="outline" cx="570.0" cy="160" fill="#e5e7eb" r="4.0" /><circle class="outline" cx="1290.0" cy="160" fill="#e5e7eb" r="4.0" /><circle class="outline" cx="930.0" cy="160" fill="#e5e7eb" r="4.0" /><line class="thin" x1="570.0" x2="570.0" y1="134.0" y2="156.0" /><circle class="outline" cx="570.0" cy="128.0" r="6" /><line class="thin" x1="1290.0" x2="1290.0" y1="134.0" y2="156.0" /><circle class="outline" cx="1290.0" cy="128.0" r="6" /><text class="label" x="544.0" y="106">RMU</text><line class="thin" x1="930.0" x2="930.0" y1="164.0" y2="171.0" /><line class="thin" x1="925.5" x2="934.5" y1="171.5" y2="180.5" /><line class="thin" x1="925.5" x2="934.5" y1="180.5" y2="171.5" /><line class="thin" x1="930.0" x2="930.0" y1="181.0" y2="190.0" /><line class="thin" x1="930.0" x2="935.4" y1="190.0" y2="195.4" /><line class="thin" x1="927.6" x2="932.4" y1="202.0" y2="202.0" /><line class="thin" x1="930.0" x2="930.0" y1="202.0" y2="220.0" /><line class="thin" x1="870.0" x2="990.0" y1="220.0" y2="220.0" /><rect class="outline" height="22.0" width="14.0" x="863.0" y="226.0" /><line class="thin" x1="870.0" x2="870.0" y1="230.0" y2="242.0" /><line class="thin" x1="870.0" x2="866.0" y1="242.0" y2="238.0" /><line class="thin" x1="870.0" x2="874.0" y1="242.0" y2="238.0" /><line class="thin" x1="870.0" x2="870.0" y1="250.0" y2="256.0" /><line class="thin" x1="864.0" x2="876.0" y1="256.0" y2="256.0" /><line class="thin" x1="866.0" x2="874.0" y1="259.0" y2="259.0" /><line class="thin" x1="868.0" x2="872.0" y1="262.0" y2="262.0" /><circle class="outline" cx="918.0" cy="230.0" r="3.5" /><circle class="outline" cx="930.0" cy="230.0" r="3.5" /><circle class="outline" cx="942.0" cy="230.0" r="3.5" /><line class="thin" x1="983.0" x2="997.0" y1="224.0" y2="224.0" /><line class="thin" x1="983.0" x2="997.0" y1="229.0" y2="229.0" /><circle class="outline" cx="990.0" cy="236.0" r="6.0" /><line class="thin" x1="985.8" x2="994.2" y1="231.8" y2="240.2" /><line class="thin" x1="985.8" x2="994.2" y1="240.2" y2="231.8" /><line class="thin" x1="990.0" x2="990.0" y1="246.0" y2="252.0" /><line class="thin" x1="984.0" x2="996.0" y1="252.0" y2="252.0" /><line class="thin" x1="986.0" x2="994.0" y1="255.0" y2="255.0" /><line class="thin" x1="988.0" x2="992.0" y1="258.0" y2="258.0" /><line class="thin" x1="930.0" x2="930.0" y1="220.0" y2="252.0" /><polygon class="thin" fill="none" points="930.0,252.0 925.2,244.0 934.8,244.0" /><circle class="outline" cx="930.0" cy="266.0" r="14.0" /><circle class="outline" cx="910.4" cy="285.6" r="14.0" /><circle class="outline" cx="949.6" cy="285.6" r="14.0" /><polygon class="thin" fill="none" points="930.0,258.3 923.0,270.9 937.0,270.9" /><line class="thin" x1="910.4" x2="910.4" y1="285.6" y2="277.20000000000005" /><line class="thin" x1="910.4" x2="903.4" y1="285.6" y2="290.5" /><line class="thin" x1="910.4" x2="917.4" y1="285.6" y2="290.5" /><line class="thin" x1="949.6" x2="949.6" y1="285.6" y2="277.20000000000005" /><line class="thin" x1="949.6" x2="942.6" y1="285.6" y2="290.5" /><line class="thin" x1="949.6" x2="956.6" y1="285.6" y2="290.5" /><line class="thin" x1="910.4" x2="910.4" y1="299.6" y2="374.0" /><line class="thin" x1="949.6" x2="949.6" y1="299.6" y2="374.0" /><text class="label" x="1048.0" y="246.0">Transformer</text><text class="label" x="1048.0" y="262.0">33.0 kV/690 V</text><text class="label" x="1048.0" y="278.0">7.7 MVA</text><text class="label" x="1048.0" y="294.0">Dyn11</text><text class="label" x="1048.0" y="310.0">Uk=7.0%</text><text class="label" x="1048.0" y="326.0">ONAN</text><line class="busbar" x1="580.0" x2="913.2" y1="374.0" y2="374.0" /><line class="busbar" x1="946.8" x2="1280.0" y1="374.0" y2="374.0" /><text class="label" x="580.0" y="366.0">LV Busbar</text><rect class="outline" height="80.0" width="80.0" x="612.5" y="398.0" /><text class="label" x="618.5" y="392.0">PCS-1</text><line class="thin" x1="631.892" x2="673.1080000000001" y1="428.592" y2="463.408" /><line class="thin" x1="631.892" x2="646.3176000000001" y1="457.14112" y2="457.14112" /><line class="thin" x1="631.892" x2="646.3176000000001" y1="452.96320000000003" y2="452.96320000000003" /><polyline class="thin" fill="none" points="658.6824,434.85888 661.0866666666667,438.47706485497906 663.4909333333334,438.47706485497906 665.8952,434.85888 668.2994666666667,431.24069514502094 670.7037333333334,431.24069514502094 673.1080000000001,434.85888" /><line class="thin" x1="648.5" x2="656.5" y1="380.0" y2="388.0" /><line class="thin" x1="648.5" x2="656.5" y1="388.0" y2="380.0" /><line class="thin" x1="652.5" x2="652.5" y1="374.0" y2="380.0" /><line class="thin" x1="652.5" x2="657.9" y1="380.0" y2="385.4" /><line class="thin" x1="650.1" x2="654.9" y1="392.0" y2="392.0" /><line class="thin" x1="652.5" x2="652.5" y1="392.0" y2="398.0" /><rect class="outline" height="80.0" width="80.0" x="797.5" y="398.0" /><text class="label" x="803.5" y="392.0">PCS-2</text><line class="thin" x1="816.892" x2="858.1080000000001" y1="428.592" y2="463.408" /><line class="thin" x1="816.892" x2="831.3176000000001" y1="457.14112" y2="457.14112" /><line class="thin" x1="816.892" x2="831.3176000000001" y1="452.96320000000003" y2="452.96320000000003" /><polyline class="thin" fill="none" points="843.6824,434.85888 846.0866666666667,438.47706485497906 848.4909333333334,438.47706485497906 850.8952,434.85888 853.2994666666667,431.24069514502094 855.7037333333334,431.24069514502094 858.1080000000001,434.85888" /><line class="thin" x1="833.5" x2="841.5" y1="380.0" y2="388.0" /><line class="thin" x1="833.5" x2="841.5" y1="388.0" y2="380.0" /><line class="thin" x1="837.5" x2="837.5" y1="374.0" y2="380.0" /><line class="thin" x1="837.5" x2="842.9" y1="380.0" y2="385.4" /><line class="thin" x1="835.1" x2="839.9" y1="392.0" y2="392.0" /><line class="thin" x1="837.5" x2="837.5" y1="392.0" y2="398.0" /><rect class="outline" height="80.0" width="80.0" x="982.5" y="398.0" /><text class="label" x="988.5" y="392.0">PCS-3</text><line class="thin" x1="1001.892" x2="1043.108" y1="428.592" y2="463.408" /><line class="thin" x1="1001.892" x2="1016.3176000000001" y1="457.14112" y2="457.14112" /><line class="thin" x1="1001.892" x2="1016.3176000000001" y1="452.96320000000003" y2="452.96320000000003" /><polyline class="thin" fill="none" points="1028.6824000000001,434.85888 1031.0866666666668,438.47706485497906 1033.4909333333335,438.47706485497906 1035.8952,434.85888 1038.2994666666666,431.24069514502094 1040.7037333333333,431.24069514502094 1043.108,434.85888" /><line class="thin" x1="1018.5" x2="1026.5" y1="380.0" y2="388.0" /><line class="thin" x1="1018.5" x2="1026.5" y1="388.0" y2="380.0" /><line class="thin" x1="1022.5" x2="1022.5" y1="374.0" y2="380.0" /><line class="thin" x1="1022.5" x2="1027.9" y1="380.0" y2="385.4" /><line class="thin" x1="1020.1" x2="1024.9" y1="392.0" y2="392.0" /><line class="thin" x1="1022.5" x2="1022.5" y1="392.0" y2="398.0" /><rect class="outline" height="80.0" width="80.0" x="1167.5" y="398.0" /><text class="label" x="1173.5" y="392.0">PCS-4</text><line class="thin" x1="1186.8919999999998" x2="1228.1079999999997" y1="428.592" y2="463.408" /><line class="thin" x1="1186.8919999999998" x2="1201.3175999999999" y1="457.14112" y2="457.14112" /><line class="thin" x1="1186.8919999999998" x2="1201.3175999999999" y1="452.96320000000003" y2="452.96320000000003" /><polyline class="thin" fill="none" points="1213.6824,434.85888 1216.0866666666666,438.47706485497906 1218.4909333333333,438.47706485497906 1220.8952,434.85888 1223.2994666666664,431.24069514502094 1225.703733333333,431.24069514502094 1228.1079999999997,434.85888" /><line class="thin" x1="1203.5" x2="1211.5" y1="380.0" y2="388.0" /><line class="thin" x1="1203.5" x2="1211.5" y1="388.0" y2="380.0" /><line class="thin" x1="1207.5" x2="1207.5" y1="374.0" y2="380.0" /><line class="thin" x1="1207.5" x2="1212.9" y1="380.0" y2="385.4" /><line class="thin" x1="1205.1" x2="1209.9" y1="392.0" y2="392.0" /><line class="thin" x1="1207.5" x2="1207.5" y1="392.0" y2="398.0" /><rect class="dash" height="230.0" width="780.0" x="540.0" y="598.0" /><text class="label title" text-anchor="end" x="1312.0" y="614.0">DC Block (BESS)</text><line class="thin" x1="652.5" x2="652.5" y1="478.0" y2="484.0" /><line class="thin" x1="652.5" x2="658.8" y1="484.0" y2="490.3" /><line class="thin" x1="649.7" x2="655.3" y1="498.0" y2="498.0" /><line class="thin" x1="652.5" x2="652.5" y1="498.0" y2="506.0" /><rect class="thin" height="10.0" width="8.0" x="648.5" y="506.0" /><line class="thin" x1="652.5" x2="652.5" y1="516.0" y2="638.0" /><line class="thin" x1="652.5" x2="652.5" y1="638.0" y2="644.0" /><polygon class="thin" fill="none" points="652.5,636.0 647.7,644.0 657.3,644.0" /><rect class="outline" height="140.0" width="64.0" x="620.5" y="648.0" /><line class="thin" x1="652.5" x2="652.5" y1="662.8" y2="773.1999999999999" /><line class="thin" x1="644.52" x2="660.48" y1="671.8933333333333" y2="671.8933333333333" /><line class="thin" x1="647.712" x2="657.288" y1="675.4399999999999" y2="675.4399999999999" /><line class="thin" x1="644.52" x2="660.48" y1="689.6266666666667" y2="689.6266666666667" /><line class="thin" x1="647.712" x2="657.288" y1="693.1733333333333" y2="693.1733333333333" /><line class="thin" x1="644.52" x2="660.48" y1="707.36" y2="707.36" /><line class="thin" x1="647.712" x2="657.288" y1="710.9066666666666" y2="710.9066666666666" /><line class="thin" x1="644.52" x2="660.48" y1="725.0933333333334" y2="725.0933333333334" /><line class="thin" x1="647.712" x2="657.288" y1="728.64" y2="728.64" /><line class="thin" x1="644.52" x2="660.48" y1="742.8266666666666" y2="742.8266666666666" /><line class="thin" x1="647.712" x2="657.288" y1="746.3733333333332" y2="746.3733333333332" /><line class="thin" x1="644.52" x2="660.48" y1="760.56" y2="760.56" /><line class="thin" x1="647.712" x2="657.288" y1="764.1066666666666" y2="764.1066666666666" /><line class="thin" x1="651.0" x2="654.0" y1="712.68" y2="712.68" /><line class="thin" x1="651.0" x2="654.0" y1="718.0" y2="718.0" /><line class="thin" x1="651.0" x2="654.0" y1="723.32" y2="723.32" /><line class="thin" x1="837.5" x2="837.5" y1="478.0" y2="484.0" /><line class="thin" x1="837.5" x2="843.8" y1="484.0" y2="490.3" /><line class="thin" x1="834.7" x2="840.3" y1="498.0" y2="498.0" /><line class="thin" x1="837.5" x2="837.5" y1="498.0" y2="506.0" /><rect class="thin" height="10.0" width="8.0" x="833.5" y="506.0" /><line class="thin" x1="837.5" x2="837.5" y1="516.0" y2="638.0" /><line class="thin" x1="837.5" x2="837.5" y1="638.0" y2="644.0" /><polygon class="thin" fill="none" points="837.5,636.0 832.7,644.0 842.3,644.0" /><rect class="outline" height="140.0" width="64.0" x="805.5" y="648.0" /><line class="thin" x1="837.5" x2="837.5" y1="662.8" y2="773.1999999999999" /><line class="thin" x1="829.52" x2="845.48" y1="671.8933333333333" y2="671.8933333333333" /><line class="thin" x1="832.712" x2="842.288" y1="675.4399999999999" y2="675.4399999999999" /><line class="thin" x1="829.52" x2="845.48" y1="689.6266666666667" y2="689.6266666666667" /><line class="thin" x1="832.712" x2="842.288" y1="693.1733333333333" y2="693.1733333333333" /><line class="thin" x1="829.52" x2="845.48" y1="707.36" y2="707.36" /><line class="thin" x1="832.712" x2="842.288" y1="710.9066666666666" y2="710.9066666666666" /><line class="thin" x1="829.52" x2="845.48" y1="725.0933333333334" y2="725.0933333333334" /><line class="thin" x1="832.712" x2="842.288" y1="728.64" y2="728.64" /><line class="thin" x1="829.52" x2="845.48" y1="742.8266666666666" y2="742.8266666666666" /><line class="thin" x1="832.712" x2="842.288" y1="746.3733333333332" y2="746.3733333333332" /><line class="thin" x1="829.52" x2="845.48" y1="760.56" y2="760.56" /><line class="thin" x1="832.712" x2="842.288" y1="764.1066666666666" y2="764.1066666666666" /><line class="thin" x1="836.0" x2="839.0" y1="712.68" y2="712.68" /><line class="thin" x1="836.0" x2="839.0" y1="718.0" y2="718.0" /><line class="thin" x1="836.0" x2="839.0" y1="723.32" y2="723.32" /><line class="thin" x1="1022.5" x2="1022.5" y1="478.0" y2="484.0" /><line class="thin" x1="1022.5" x2="1028.8" y1="484.0" y2="490.3" /><line class="thin" x1="1019.7" x2="1025.3" y1="498.0" y2="498.0" /><line class="thin" x1="1022.5" x2="1022.5" y1="498.0" y2="506.0" /><rect class="thin" height="10.0" width="8.0" x="1018.5" y="506.0" /><line class="thin" x1="1022.5" x2="1022.5" y1="516.0" y2="638.0" /><line class="thin" x1="1022.5" x2="1022.5" y1="638.0" y2="644.0" /><polygon class="thin" fill="none" points="1022.5,636.0 1017.7,644.0 1027.3,644.0" /><rect class="outline" height="140.0" width="64.0" x="990.5" y="648.0" /><line class="thin" x1="1022.5" x2="1022.5" y1="662.8" y2="773.1999999999999" /><line class="thin" x1="1014.52" x2="1030.48" y1="671.8933333333333" y2="671.8933333333333" /><line class="thin" x1="1017.712" x2="1027.288" y1="675.4399999999999" y2="675.4399999999999" /><line class="thin" x1="1014.52" x2="1030.48" y1="689.6266666666667" y2="689.6266666666667" /><line class="thin" x1="1017.712" x2="1027.288" y1="693.1733333333333" y2="693.1733333333333" /><line class="thin" x1="1014.52" x2="1030.48" y1="707.36" y2="707.36" /><line class="thin" x1="1017.712" x2="1027.288" y1="710.9066666666666" y2="710.9066666666666" /><line class="thin" x1="1014.52" x2="1030.48" y1="725.0933333333334" y2="725.0933333333334" /><line class="thin" x1="1017.712" x2="1027.288" y1="728.64" y2="728.64" /><line class="thin" x1="1014.52" x2="1030.48" y1="742.8266666666666" y2="742.8266666666666" /><line class="thin" x1="1017.712" x2="1027.288" y1="746.3733333333332" y2="746.3733333333332" /><line class="thin" x1="1014.52" x2="1030.48" y1="760.56" y2="760.56" /><line class="thin" x1="1017.712" x2="1027.288" y1="764.1066666666666" y2="764.1066666666666" /><line class="thin" x1="1021.0" x2="1024.0" y1="712.68" y2="712.68" /><line class="thin" x1="1021.0" x2="1024.0" y1="718.0" y2="718.0" /><line class="thin" x1="1021.0" x2="1024.0" y1="723.32" y2="723.32" /><line class="thin" x1="1207.5" x2="1207.5" y1="478.0" y2="484.0" /><line class="thin" x1="1207.5" x2="1213.8" y1="484.0" y2="490.3" /><line class="thin" x1="1204.7" x2="1210.3" y1="498.0" y2="498.0" /><line class="thin" x1="1207.5" x2="1207.5" y1="498.0" y2="506.0" /><rect class="thin" height="10.0" width="8.0" x="1203.5" y="506.0" /><line class="thin" x1="1207.5" x2="1207.5" y1="516.0" y2="638.0" /><line class="thin" x1="1207.5" x2="1207.5" y1="638.0" y2="644.0" /><polygon class="thin" fill="none" points="1207.5,636.0 1202.7,644.0 1212.3,644.0" /><rect class="outline" height="140.0" width="64.0" x="1175.5" y="648.0" /><line class="thin" x1="1207.5" x2="1207.5" y1="662.8" y2="773.1999999999999" /><line class="thin" x1="1199.52" x2="1215.48" y1="671.8933333333333" y2="671.8933333333333" /><line class="thin" x1="1202.712" x2="1212.288" y1="675.4399999999999" y2="675.4399999999999" /><line class="thin" x1="1199.52" x2="1215.48" y1="689.6266666666667" y2="689.6266666666667" /><line class="thin" x1="1202.712" x2="1212.288" y1="693.1733333333333" y2="693.1733333333333" /><line class="thin" x1="1199.52" x2="1215.48" y1="707.36" y2="707.36" /><line class="thin" x1="1202.712" x2="1212.288" y1="710.9066666666666" y2="710.9066666666666" /><line class="thin" x1="1199.52" x2="1215.48" y1="725.0933333333334" y2="725.0933333333334" /><line class="thin" x1="1202.712" x2="1212.288" y1="728.64" y2="728.64" /><line class="thin" x1="1199.52" x2="1215.48" y1="742.8266666666666" y2="742.8266666666666" /><line class="thin" x1="1202.712" x2="1212.288" y1="746.3733333333332" y2="746.3733333333332" /><line class="thin" x1="1199.52" x2="1215.48" y1="760.56" y2="760.56" /><line class="thin" x1="1202.712" x2="1212.288" y1="764.1066666666666" y2="764.1066666666666" /><line class="thin" x1="1206.0" x2="1209.0" y1="712.68" y2="712.68" /><line class="thin" x1="1206.0" x2="1209.0" y1="718.0" y2="718.0" /><line class="thin" x1="1206.0" x2="1209.0" y1="723.32" y2="723.32" /></svg>