<?xml version="1.0" encoding="utf-8" ?>
<svg baseProfile="full" height="769.0px" version="1.1" viewBox="0 0 1400 769.0" width="1400px" xmlns="http://www.w3.org/2000/svg" xmlns:ev="http://www.w3.org/2001/xml-events" xmlns:xlink="http://www.w3.org/1999/xlink"><defs /><style type="text/css"><![CDATA[
svg { font-family: Arial, 'DejaVu Sans', sans-serif; font-size: 11px; }
.outline { stroke: #e5e7eb; stroke-width: 1.4; fill: none; }
.thin { stroke: #cbd5e1; stroke-width: 1.0; fill: none; }
.thick { stroke: #e5e7eb; stroke-width: 2.0; fill: none; }
.dash { stroke: #22d3ee; stroke-width: 1.4; fill: none; stroke-dasharray: 6,4; }
.busbar { stroke: #ef4444; stroke-width: 2.0; fill: none; }
.label { fill: #e5e7eb; }
.title { font-size: 12px; font-weight: bold; fill: #f8fafc; }
.small { font-size: 10px; fill: #e5e7eb; }
]]></style><rect fill="#0b0f13" height="769.0" width="1400" x="0" y="0" /><rect class="outline" height="466" width="420.0" x="40.0" y="40" /><text class="label title" x="50.0" y="65">Power Cable</text><text class="label small" x="62.0" y="81">TBD</text><line class="thin" x1="40.0" x2="460.0" y1="87.0" y2="87.0" /><text class="label title" x="50.0" y="103">Ring Main Unit (SF6)</text><text class="label small" x="62.0" y="119">LBS: 36kV, 630A, 25.0kA/3s</text><text class="label small" x="62.0" y="135">CB: 36kV, 630A, 25.0kA/3s</text><text class="label small" x="62.0" y="151">CT: 300/1, 5P20, 5VA</text><text class="label small" x="62.0" y="167">With DS, ES, &amp; Live Display</text><line class="thin" x1="40.0" x2="460.0" y1="173.0" y2="173.0" /><text class="label title" x="50.0" y="189">Power Cable</text><text class="label small" x="62.0" y="205">TBD</text><line class="thin" x1="40.0" x2="460.0" y1="211.0" y2="211.0" /><text class="label title" x="50.0" y="227">Step-up Transformer (OIL)</text><text class="label small" x="62.0" y="243">7667 kVA, Dyn11</text><text class="label small" x="62.0" y="259">33kV+/-2x2.5%/690V</text><text class="label small" x="62.0" y="275">Ud=7.0%, ONAN</text><line class="thin" x1="40.0" x2="460.0" y1="281.0" y2="281.0" /><text class="label title" x="50.0" y="297">Connecting Copper Tape</text><text class="label small" x="62.0" y="313">AC690V, 6420A, 25.0kA</text><line class="thin" x1="40.0" x2="460.0" y1="319.0" y2="319.0" /><text class="label title" x="50.0" y="335">Power Converter System (PCS)</text><text class="label small" x="62.0" y="351">CB: AC690V, 1440A, 25.0kA</text><text class="label small" x="62.0" y="367">PCS-1725kW x 4</text><text class="label small" x="62.0" y="383">AC690V/50/60Hz, DC1200V</text><text class="label small" x="62.0" y="399">DS: DC1200V, 1438A</text><text class="label small" x="62.0" y="415">FUSE: TBD</text><line class="thin" x1="40.0" x2="460.0" y1="421.0" y2="421.0" /><text class="label title" x="50.0" y="437">Power Cable</text><text class="label small" x="62.0" y="453">TBD</text><line class="thin" x1="40.0" x2="460.0" y1="459.0" y2="459.0" /><text class="label title" x="50.0" y="475">Battery Storage Bank (BAT)</text><text class="label small" x="62.0" y="491">1~4 BESS</text><rect class="dash" height="439.0" width="860.0" x="500.0" y="40" /><text class="label title" text-anchor="end" x="1352.0" y="58">AC Block (PCS&amp;MV SKID)</text><text class="label" x="560.0" y="85">To 33kV Switchgear</text><text class="label" text-anchor="end" x="1300.0" y="85">To Other RMU</text><line class="thin" x1="570.0" x2="570.0" y1="95" y2="115" /><line class="thin" x1="1290.0" x2="1290.0" y1="95" y2="115" /><text class="label" x="580.0" y="110">RMU</text><line class="thin" x1="580.0" x2="580.0" y1="115" y2="155" /><line class="thin" x1="650.0" x2="650.0" y1="115" y2="155" /><line class="thin" x1="580.0" x2="650.0" y1="135" y2="135" /><line class="thin" x1="608.0" x2="620.0" y1="129" y2="141" /><line class="thin" x1="620.0" x2="632.0" y1="141" y2="141" /><line class="thin" x1="615.0" x2="615.0" y1="159" y2="169" /><line class="thin" x1="607.0" x2="623.0" y1="169" y2="169" /><line class="thin" x1="609.0" x2="621.0" y1="173" y2="173" /><line class="thin" x1="611.0" x2="619.0" y1="177" y2="177" /><circle class="outline" cx="890.0" cy="195" r="18" /><circle class="outline" cx="940.0" cy="195" r="18" /><line class="thin" x1="908.0" x2="922.0" y1="195" y2="195" /><text class="label" x="970.0" y="182">Transformer</text><text class="label" x="970.0" y="198">33.0 kV/690 V</text><text class="label" x="970.0" y="214">7.7 MVA</text><text class="label" x="970.0" y="230">Dyn11</text><text class="label" x="970.0" y="246">Uk=7.0%</text><text class="label" x="970.0" y="262">ONAN</text><line class="busbar" x1="580.0" x2="1280.0" y1="270" y2="270" /><text class="label" x="580.0" y="262">LV Busbar</text><rect class="outline" height="105.0" width="84.0" x="610.5" y="294" /><text class="label" x="616.5" y="288">PCS-1</text><line class="thin" x1="632.0712000000001" x2="672.9288000000001" y1="332.7912" y2="381.2088" /><line class="thin" x1="632.0712000000001" x2="646.3713600000001" y1="372.493632" y2="372.493632" /><line class="thin" x1="632.0712000000001" x2="646.3713600000001" y1="366.68352" y2="366.68352" /><polyline class="thin" fill="none" points="658.6286400000001,341.506368 661.0120000000002,346.5380725908328 663.3953600000001,346.5380725908328 665.7787200000001,341.506368 668.1620800000002,336.4746634091672 670.5454400000001,336.4746634091672 672.9288000000001,341.506368" /><line class="thin" x1="652.5" x2="652.5" y1="270" y2="294" /><rect class="outline" height="105.0" width="84.0" x="795.5" y="294" /><text class="label" x="801.5" y="288">PCS-2</text><line class="thin" x1="817.0712000000001" x2="857.9288000000001" y1="332.7912" y2="381.2088" /><line class="thin" x1="817.0712000000001" x2="831.3713600000001" y1="372.493632" y2="372.493632" /><line class="thin" x1="817.0712000000001" x2="831.3713600000001" y1="366.68352" y2="366.68352" /><polyline class="thin" fill="none" points="843.6286400000001,341.506368 846.0120000000002,346.5380725908328 848.3953600000001,346.5380725908328 850.7787200000001,341.506368 853.1620800000002,336.4746634091672 855.5454400000001,336.4746634091672 857.9288000000001,341.506368" /><line class="thin" x1="837.5" x2="837.5" y1="270" y2="294" /><rect class="outline" height="105.0" width="84.0" x="980.5" y="294" /><text class="label" x="986.5" y="288">PCS-3</text><line class="thin" x1="1002.0712000000001" x2="1042.9288000000001" y1="332.7912" y2="381.2088" /><line class="thin" x1="1002.0712000000001" x2="1016.3713600000001" y1="372.493632" y2="372.493632" /><line class="thin" x1="1002.0712000000001" x2="1016.3713600000001" y1="366.68352" y2="366.68352" /><polyline class="thin" fill="none" points="1028.6286400000001,341.506368 1031.0120000000002,346.5380725908328 1033.3953600000002,346.5380725908328 1035.7787200000002,341.506368 1038.16208,336.4746634091672 1040.54544,336.4746634091672 1042.9288000000001,341.506368" /><line class="thin" x1="1022.5" x2="1022.5" y1="270" y2="294" /><rect class="outline" height="105.0" width="84.0" x="1165.5" y="294" /><text class="label" x="1171.5" y="288">PCS-4</text><line class="thin" x1="1187.0711999999999" x2="1227.9288" y1="332.7912" y2="381.2088" /><line class="thin" x1="1187.0711999999999" x2="1201.3713599999999" y1="372.493632" y2="372.493632" /><line class="thin" x1="1187.0711999999999" x2="1201.3713599999999" y1="366.68352" y2="366.68352" /><polyline class="thin" fill="none" points="1213.62864,341.506368 1216.012,346.5380725908328 1218.39536,346.5380725908328 1220.7787199999998,341.506368 1223.1620799999998,336.4746634091672 1225.5454399999999,336.4746634091672 1227.9288,341.506368" /><line class="thin" x1="1207.5" x2="1207.5" y1="270" y2="294" /><line class="thin" x1="652.5" x2="652.5" y1="399.0" y2="429.0" /><line class="thin" x1="837.5" x2="837.5" y1="399.0" y2="429.0" /><line class="thin" x1="1022.5" x2="1022.5" y1="399.0" y2="429.0" /><line class="thin" x1="1207.5" x2="1207.5" y1="399.0" y2="429.0" /><rect class="dash" height="210.0" width="780.0" x="540.0" y="519.0" /><text class="label title" text-anchor="end" x="1312.0" y="535.0">DC Block (BESS)</text><line class="thin" x1="652.5" x2="652.5" y1="429.0" y2="559.0" /><rect class="outline" height="120.0" width="84.0" x="610.5" y="569.0" /><line class="thin" x1="623.5" x2="639.5" y1="591.416" y2="591.416" /><line class="thin" x1="623.5" x2="639.5" y1="594.584" y2="594.584" /><line class="thin" x1="665.5" x2="681.5" y1="591.416" y2="591.416" /><line class="thin" x1="665.5" x2="681.5" y1="594.584" y2="594.584" /><line class="thin" x1="623.5" x2="639.5" y1="605.816" y2="605.816" /><line class="thin" x1="623.5" x2="639.5" y1="608.9839999999999" y2="608.9839999999999" /><line class="thin" x1="665.5" x2="681.5" y1="605.816" y2="605.816" /><line class="thin" x1="665.5" x2="681.5" y1="608.9839999999999" y2="608.9839999999999" /><line class="thin" x1="623.5" x2="639.5" y1="620.216" y2="620.216" /><line class="thin" x1="623.5" x2="639.5" y1="623.3839999999999" y2="623.3839999999999" /><line class="thin" x1="665.5" x2="681.5" y1="620.216" y2="620.216" /><line class="thin" x1="665.5" x2="681.5" y1="623.3839999999999" y2="623.3839999999999" /><line class="thin" x1="623.5" x2="639.5" y1="634.616" y2="634.616" /><line class="thin" x1="623.5" x2="639.5" y1="637.7839999999999" y2="637.7839999999999" /><line class="thin" x1="665.5" x2="681.5" y1="634.616" y2="634.616" /><line class="thin" x1="665.5" x2="681.5" y1="637.7839999999999" y2="637.7839999999999" /><line class="thin" x1="623.5" x2="639.5" y1="649.016" y2="649.016" /><line class="thin" x1="623.5" x2="639.5" y1="652.1839999999999" y2="652.1839999999999" /><line class="thin" x1="665.5" x2="681.5" y1="649.016" y2="649.016" /><line class="thin" x1="665.5" x2="681.5" y1="652.1839999999999" y2="652.1839999999999" /><line class="thin" x1="623.5" x2="639.5" y1="663.416" y2="663.416" /><line class="thin" x1="623.5" x2="639.5" y1="666.584" y2="666.584" /><line class="thin" x1="665.5" x2="681.5" y1="663.416" y2="663.416" /><line class="thin" x1="665.5" x2="681.5" y1="666.584" y2="666.584" /><line class="thin" x1="837.5" x2="837.5" y1="429.0" y2="559.0" /><rect class="outline" height="120.0" width="84.0" x="795.5" y="569.0" /><line class="thin" x1="808.5" x2="824.5" y1="591.416" y2="591.416" /><line class="thin" x1="808.5" x2="824.5" y1="594.584" y2="594.584" /><line class="thin" x1="850.5" x2="866.5" y1="591.416" y2="591.416" /><line class="thin" x1="850.5" x2="866.5" y1="594.584" y2="594.584" /><line class="thin" x1="808.5" x2="824.5" y1="605.816" y2="605.816" /><line class="thin" x1="808.5" x2="824.5" y1="608.9839999999999" y2="608.9839999999999" /><line class="thin" x1="850.5" x2="866.5" y1="605.816" y2="605.816" /><line class="thin" x1="850.5" x2="866.5" y1="608.9839999999999" y2="608.9839999999999" /><line class="thin" x1="808.5" x2="824.5" y1="620.216" y2="620.216" /><line class="thin" x1="808.5" x2="824.5" y1="623.3839999999999" y2="623.3839999999999" /><line class="thin" x1="850.5" x2="866.5" y1="620.216" y2="620.216" /><line class="thin" x1="850.5" x2="866.5" y1="623.3839999999999" y2="623.3839999999999" /><line class="thin" x1="808.5" x2="824.5" y1="634.616" y2="634.616" /><line class="thin" x1="808.5" x2="824.5" y1="637.7839999999999" y2="637.7839999999999" /><line class="thin" x1="850.5" x2="866.5" y1="634.616" y2="634.616" /><line class="thin" x1="850.5" x2="866.5" y1="637.7839999999999" y2="637.7839999999999" /><line class="thin" x1="808.5" x2="824.5" y1="649.016" y2="649.016" /><line class="thin" x1="808.5" x2="824.5" y1="652.1839999999999" y2="652.1839999999999" /><line class="thin" x1="850.5" x2="866.5" y1="649.016" y2="649.016" /><line class="thin" x1="850.5" x2="866.5" y1="652.1839999999999" y2="652.1839999999999" /><line class="thin" x1="808.5" x2="824.5" y1="663.416" y2="663.416" /><line class="thin" x1="808.5" x2="824.5" y1="666.584" y2="666.584" /><line class="thin" x1="850.5" x2="866.5" y1="663.416" y2="663.416" /><line class="thin" x1="850.5" x2="866.5" y1="666.584" y2="666.584" /><line class="thin" x1="1022.5" x2="1022.5" y1="429.0" y2="559.0" /><rect class="outline" height="120.0" width="84.0" x="980.5" y="569.0" /><line class="thin" x1="993.5" x2="1009.5" y1="591.416" y2="591.416" /><line class="thin" x1="993.5" x2="1009.5" y1="594.584" y2="594.584" /><line class="thin" x1="1035.5" x2="1051.5" y1="591.416" y2="591.416" /><line class="thin" x1="1035.5" x2="1051.5" y1="594.584" y2="594.584" /><line class="thin" x1="993.5" x2="1009.5" y1="605.816" y2="605.816" /><line class="thin" x1="993.5" x2="1009.5" y1="608.9839999999999" y2="608.9839999999999" /><line class="thin" x1="1035.5" x2="1051.5" y1="605.816" y2="605.816" /><line class="thin" x1="1035.5" x2="1051.5" y1="608.9839999999999" y2="608.9839999999999" /><line class="thin" x1="993.5" x2="1009.5" y1="620.216" y2="620.216" /><line class="thin" x1="993.5" x2="1009.5" y1="623.3839999999999" y2="623.3839999999999" /><line class="thin" x1="1035.5" x2="1051.5" y1="620.216" y2="620.216" /><line class="thin" x1="1035.5" x2="1051.5" y1="623.3839999999999" y2="623.3839999999999" /><line class="thin" x1="993.5" x2="1009.5" y1="634.616" y2="634.616" /><line class="thin" x1="993.5" x2="1009.5" y1="637.7839999999999" y2="637.7839999999999" /><line class="thin" x1="1035.5" x2="1051.5" y1="634.616" y2="634.616" /><line class="thin" x1="1035.5" x2="1051.5" y1="637.7839999999999" y2="637.7839999999999" /><line class="thin" x1="993.5" x2="1009.5" y1="649.016" y2="649.016" /><line class="thin" x1="993.5" x2="1009.5" y1="652.1839999999999" y2="652.1839999999999" /><line class="thin" x1="1035.5" x2="1051.5" y1="649.016" y2="649.016" /><line class="thin" x1="1035.5" x2="1051.5" y1="652.1839999999999" y2="652.1839999999999" /><line class="thin" x1="993.5" x2="1009.5" y1="663.416" y2="663.416" /><line class="thin" x1="993.5" x2="1009.5" y1="666.584" y2="666.584" /><line class="thin" x1="1035.5" x2="1051.5" y1="663.416" y2="663.416" /><line class="thin" x1="1035.5" x2="1051.5" y1="666.584" y2="666.584" /><line class="thin" x1="1207.5" x2="1207.5" y1="429.0" y2="559.0" /><rect class="outline" height="120.0" width="84.0" x="1165.5" y="569.0" /><line class="thin" x1="1178.5" x2="1194.5" y1="591.416" y2="591.416" /><line class="thin" x1="1178.5" x2="1194.5" y1="594.584" y2="594.584" /><line class="thin" x1="1220.5" x2="1236.5" y1="591.416" y2="591.416" /><line class="thin" x1="1220.5" x2="1236.5" y1="594.584" y2="594.584" /><line class="thin" x1="1178.5" x2="1194.5" y1="605.816" y2="605.816" /><line class="thin" x1="1178.5" x2="1194.5" y1="608.9839999999999" y2="608.9839999999999" /><line class="thin" x1="1220.5" x2="1236.5" y1="605.816" y2="605.816" /><line class="thin" x1="1220.5" x2="1236.5" y1="608.9839999999999" y2="608.9839999999999" /><line class="thin" x1="1178.5" x2="1194.5" y1="620.216" y2="620.216" /><line class="thin" x1="1178.5" x2="1194.5" y1="623.3839999999999" y2="623.3839999999999" /><line class="thin" x1="1220.5" x2="1236.5" y1="620.216" y2="620.216" /><line class="thin" x1="1220.5" x2="1236.5" y1="623.3839999999999" y2="623.3839999999999" /><line class="thin" x1="1178.5" x2="1194.5" y1="634.616" y2="634.616" /><line class="thin" x1="1178.5" x2="1194.5" y1="637.7839999999999" y2="637.7839999999999" /><line class="thin" x1="1220.5" x2="1236.5" y1="634.616" y2="634.616" /><line class="thin" x1="1220.5" x2="1236.5" y1="637.7839999999999" y2="637.7839999999999" /><line class="thin" x1="1178.5" x2="1194.5" y1="649.016" y2="649.016" /><line class="thin" x1="1178.5" x2="1194.5" y1="652.1839999999999" y2="652.1839999999999" /><line class="thin" x1="1220.5" x2="1236.5" y1="649.016" y2="649.016" /><line class="thin" x1="1220.5" x2="1236.5" y1="652.1839999999999" y2="652.1839999999999" /><line class="thin" x1="1178.5" x2="1194.5" y1="663.416" y2="663.416" /><line class="thin" x1="1178.5" x2="1194.5" y1="666.584" y2="666.584" /><line class="thin" x1="1220.5" x2="1236.5" y1="663.416" y2="663.416" /><line class="thin" x1="1220.5" x2="1236.5" y1="666.584" y2="666.584" /></svg>