<?xml version="1.0" encoding="utf-8" ?>
<svg baseProfile="full" height="888.0px" version="1.1" viewBox="0 0 1750 888.0" width="1750px" xmlns="http://www.w3.org/2000/svg" xmlns:ev="http://www.w3.org/2001/xml-events" xmlns:xlink="http://www.w3.org/1999/xlink"><defs /><style type="text/css"><![CDATA[
svg { font-family: Arial, 'DejaVu Sans', sans-serif; font-size: 11px; }
.outline { stroke: #000000; stroke-width: 1.4; fill: none; }
.thin { stroke: #000000; stroke-width: 1.0; fill: none; }
.thick { stroke: #000000; stroke-width: 2.0; fill: none; }
.dash { stroke: #000000; stroke-width: 1.4; fill: none; stroke-dasharray: 6,4; }
.label { fill: #000000; }
.title { font-size: 12px; font-weight: bold; }
.small { font-size: 10px; }
]]></style><rect fill="#ffffff" height="888.0" width="1750" x="0" y="0" /><rect class="outline" height="230" width="420" x="40" y="40" /><line class="thin" x1="190" x2="190" y1="40" y2="270" /><line class="thin" x1="40" x2="460" y1="60" y2="60" /><line class="thin" x1="40" x2="460" y1="78" y2="78" /><text class="label title" x="46" y="54">Equipment List</text><text class="label" x="46" y="73">Item</text><text class="label" x="196" y="73">Spec</text><text class="label" x="46" y="91">MV Cable</text><text class="label" x="196" y="91">TBD</text><line class="thin" x1="40" x2="460" y1="94" y2="94" /><text class="label" x="46" y="107">Ring Main Unit (RMU)</text><text class="label" x="196" y="107">24 kV class, 630 A, 25.0 kA/3s, CT</text><text class="label" x="196" y="123">200/1, 5P20, 10 VA</text><line class="thin" x1="40" x2="460" y1="126" y2="126" /><text class="label" x="46" y="139">Transformer</text><text class="label" x="196" y="139">4.4 MVA, 33.0 kV/690 V, Dyn11,</text><text class="label" x="196" y="155">Uk=7.0%, ONAN</text><line class="thin" x1="40" x2="460" y1="158" y2="158" /><text class="label" x="46" y="171">LV Busbar</text><text class="label" x="196" y="171">2500 A, 25.0 kA</text><line class="thin" x1="40" x2="460" y1="174" y2="174" /><text class="label" x="46" y="187">PCS</text><text class="label" x="196" y="187">1000 kW x 4, LV 690 V</text><line class="thin" x1="40" x2="460" y1="190" y2="190" /><text class="label" x="46" y="203">LV Cable</text><text class="label" x="196" y="203">TBD</text><line class="thin" x1="40" x2="460" y1="206" y2="206" /><text class="label" x="46" y="219">DC Cable</text><text class="label" x="196" y="219">TBD</text><line class="thin" x1="40" x2="460" y1="222" y2="222" /><text class="label" x="46" y="235">DC Fuse</text><text class="label" x="196" y="235">TBD</text><line class="thin" x1="40" x2="460" y1="238" y2="238" /><text class="label" x="46" y="251">Battery Storage Bank</text><text class="label" x="196" y="251">5.000 MWh each x 2</text><line class="thin" x1="40" x2="460" y1="254" y2="254" /><text class="label" x="46" y="267">DC Block Allocation</text><text class="label" x="196" y="267">F1=1, F2=1, F3=0, F4=0</text><line class="thin" x1="40" x2="460" y1="270" y2="270" /><rect class="dash" height="418" width="1210" x="500" y="40" /><text class="label title" x="508" y="58">PCS&amp;MVT SKID (AC Block)</text><text class="label" x="560" y="85">To Switchgear</text><text class="label" text-anchor="end" x="1650" y="85">To Other RMU</text><line class="thin" x1="570" x2="570" y1="95" y2="115" /><line class="thin" x1="1640" x2="1640" y1="95" y2="115" /><text class="label" x="580" y="110">RMU</text><line class="thin" x1="580" x2="580" y1="115" y2="155" /><line class="thin" x1="650" x2="650" y1="115" y2="155" /><line class="thin" x1="580" x2="650" y1="135" y2="135" /><line class="thin" x1="608" x2="620" y1="129" y2="141" /><line class="thin" x1="620" x2="632" y1="141" y2="141" /><line class="thin" x1="615" x2="615" y1="159" y2="169" /><line class="thin" x1="607" x2="623" y1="169" y2="169" /><line class="thin" x1="609" x2="621" y1="173" y2="173" /><line class="thin" x1="611" x2="619" y1="177" y2="177" /><circle class="outline" cx="1065.0" cy="195" r="18" /><circle class="outline" cx="1115.0" cy="195" r="18" /><line class="thin" x1="1083.0" x2="1097.0" y1="195" y2="195" /><text class="label" x="1145.0" y="182">Transformer</text><text class="label" x="1145.0" y="198">33.0 kV/690 V</text><text class="label" x="1145.0" y="214">4.4 MVA</text><text class="label" x="1145.0" y="230">Dyn11</text><text class="label" x="1145.0" y="246">Uk=7.0%</text><text class="label" x="1145.0" y="262">ONAN</text><line class="thick" x1="580" x2="1630" y1="270" y2="270" /><text class="label" x="580" y="262">LV Busbar</text><rect class="outline" height="54" width="160.0" x="616.25" y="294" /><text class="label" x="624.25" y="314">PCS-1</text><text class="label" x="624.25" y="332">1000 kW</text><line class="thin" x1="696.25" x2="696.25" y1="270" y2="294" /><rect class="outline" height="54" width="160.0" x="888.75" y="294" /><text class="label" x="896.75" y="314">PCS-2</text><text class="label" x="896.75" y="332">1000 kW</text><line class="thin" x1="968.75" x2="968.75" y1="270" y2="294" /><rect class="outline" height="54" width="160.0" x="1161.25" y="294" /><text class="label" x="1169.25" y="314">PCS-3</text><text class="label" x="1169.25" y="332">1000 kW</text><line class="thin" x1="1241.25" x2="1241.25" y1="270" y2="294" /><rect class="outline" height="54" width="160.0" x="1433.75" y="294" /><text class="label" x="1441.75" y="314">PCS-4</text><text class="label" x="1441.75" y="332">1000 kW</text><line class="thin" x1="1513.75" x2="1513.75" y1="270" y2="294" /><line class="thick" x1="661.25" x2="731.25" y1="376" y2="376" /><text class="small" x="641.25" y="368">BUSBAR A (Circuit A)</text><line class="thick" x1="661.25" x2="731.25" y1="398" y2="398" /><text class="small" x="641.25" y="390">BUSBAR B (Circuit B)</text><line class="thin" x1="696.25" x2="696.25" y1="348" y2="376" /><rect class="outline" height="10" width="18" x="687.25" y="357.0" /><line class="thick" x1="933.75" x2="1003.75" y1="376" y2="376" /><text class="small" x="913.75" y="368">BUSBAR A (Circuit A)</text><line class="thick" x1="933.75" x2="1003.75" y1="398" y2="398" /><text class="small" x="913.75" y="390">BUSBAR B (Circuit B)</text><line class="thin" x1="968.75" x2="968.75" y1="348" y2="376" /><rect class="outline" height="10" width="18" x="959.75" y="357.0" /><line class="thick" x1="1206.25" x2="1276.25" y1="376" y2="376" /><text class="small" x="1186.25" y="368">BUSBAR A (Circuit A)</text><line class="thick" x1="1206.25" x2="1276.25" y1="398" y2="398" /><text class="small" x="1186.25" y="390">BUSBAR B (Circuit B)</text><line class="thin" x1="1241.25" x2="1241.25" y1="348" y2="376" /><rect class="outline" height="10" width="18" x="1232.25" y="357.0" /><line class="thick" x1="1478.75" x2="1548.75" y1="376" y2="376" /><text class="small" x="1458.75" y="368">BUSBAR A (Circuit A)</text><line class="thick" x1="1478.75" x2="1548.75" y1="398" y2="398" /><text class="small" x="1458.75" y="390">BUSBAR B (Circuit B)</text><line class="thin" x1="1513.75" x2="1513.75" y1="348" y2="376" /><rect class="outline" height="10" width="18" x="1504.75" y="357.0" /><rect class="dash" height="176.0" width="1130" x="540" y="498" /><text class="label title" x="548" y="514">Battery Storage Bank</text><rect class="outline" height="54" width="160.0" x="616.25" y="438" /><text class="small" x="622.25" y="458">DC Block #1 (5.000 MWh)</text><text class="small" x="622.25" y="476">2 circuits (A/B)</text><line class="thin" x1="672.25" x2="672.25" y1="438" y2="376" /><line class="thin" x1="672.25" x2="696.25" y1="376" y2="376" /><line class="thin" x1="720.25" x2="720.25" y1="438" y2="398" /><line class="thin" x1="720.25" x2="696.25" y1="398" y2="398" /><rect class="outline" height="54" width="160.0" x="706.25" y="438" /><text class="small" x="712.25" y="458">DC Block #2 (5.000 MWh)</text><text class="small" x="712.25" y="476">2 circuits (A/B)</text><line class="thin" x1="762.25" x2="762.25" y1="438" y2="376" /><line class="thin" x1="762.25" x2="696.25" y1="376" y2="376" /><line class="thin" x1="810.25" x2="810.25" y1="438" y2="398" /><line class="thin" x1="810.25" x2="696.25" y1="398" y2="398" /><text class="small" x="540" y="694.0">Each PCS has independent DC BUSBAR A &amp; B; 2 DC blocks evenly allocated; each block connects independently to its assigned PCS.</text><text class="small" x="548" y="650.0">Each DC block provides Circuit A and Circuit B.</text><rect class="outline" height="150" width="480.0" x="1230.0" y="698.0" /><text class="label title" x="1238.0" y="716.0">Allocation Summary (AC Block group)</text><text class="label" x="1238.0" y="734.0">Battery Storage Bank: 2 blocks @ 5.000 MWh each</text><text class="label" x="1238.0" y="752.0">PCS count: 4, LV 690 V</text><text class="label" x="1238.0" y="770.0">Group A feeders: F1=1, F2=1 (total 2)</text><text class="label" x="1238.0" y="788.0">Group B feeders: F3=0, F4=0 (total 0)</text><text class="label" x="1238.0" y="806.0">Allocation: F1=1, F2=1, F3=0, F4=0</text><text class="label" x="1238.0" y="824.0">Counts indicate allocation for sizing/configuration; detailed DC</text><text class="label" x="1238.0" y="842.0">wiring is not represented.</text></svg>