<?xml version="1.0" encoding="utf-8" ?>
<svg baseProfile="full" height="764.0px" version="1.1" viewBox="0 0 1400 764.0" width="1400px" xmlns="http://www.w3.org/2000/svg" xmlns:ev="http://www.w3.org/2001/xml-events" xmlns:xlink="http://www.w3.org/1999/xlink"><defs /><style type="text/css"><![CDATA[
svg { font-family: Arial, 'DejaVu Sans', sans-serif; font-size: 11px; }
.outline { stroke: #e5e7eb; stroke-width: 1.4; fill: none; }
.thin { stroke: #cbd5e1; stroke-width: 1.0; fill: none; }
.thick { stroke: #e5e7eb; stroke-width: 2.0; fill: none; }
.dash { stroke: #22d3ee; stroke-width: 1.4; fill: none; stroke-dasharray: 6,4; }
.busbar { stroke: #ef4444; stroke-width: 2.0; fill: none; }
.label { fill: #e5e7eb; }
.title { font-size: 12px; font-weight: bold; fill: #f8fafc; }
.small { font-size: 10px; fill: #e5e7eb; }
]]></style><rect fill="#0b0f13" height="764.0" width="1400" x="0" y="0" /><rect class="outline" height="466" width="420.0" x="40.0" y="40" /><text class="label title" x="50.0" y="65">Power Cable</text><text class="label small" x="62.0" y="81">TBD</text><line class="thin" x1="40.0" x2="460.0" y1="87.0" y2="87.0" /><text class="label title" x="50.0" y="103">Ring Main Unit (SF6)</text><text class="label small" x="62.0" y="119">LBS: 36kV, 630A, 25.0kA/3s</text><text class="label small" x="62.0" y="135">CB: 36kV, 630A, 25.0kA/3s</text><text class="label small" x="62.0" y="151">CT: 300/1, 5P20, 5VA</text><text class="label small" x="62.0" y="167">With DS, ES, &amp; Live Display</text><line class="thin" x1="40.0" x2="460.0" y1="173.0" y2="173.0" /><text class="label title" x="50.0" y="189">Power Cable</text><text class="label small" x="62.0" y="205">TBD</text><line class="thin" x1="40.0" x2="460.0" y1="211.0" y2="211.0" /><text class="label title" x="50.0" y="227">Step-up Transformer (OIL)</text><text class="label small" x="62.0" y="243">5000 kVA, Dyn11</text><text class="label small" x="62.0" y="259">33kV+/-2x2.5%/690V</text><text class="label small" x="62.0" y="275">Ud=7.0%, ONAN</text><line class="thin" x1="40.0" x2="460.0" y1="281.0" y2="281.0" /><text class="label title" x="50.0" y="297">Connecting Copper Tape</text><text class="label small" x="62.0" y="313">AC690V, 4180A, 25.0kA</text><line class="thin" x1="40.0" x2="460.0" y1="319.0" y2="319.0" /><text class="label title" x="50.0" y="335">Power Converter System (PCS)</text><text class="label small" x="62.0" y="351">CB: AC690V, 1050A, 25.0kA</text><text class="label small" x="62.0" y="367">PCS-1250kW x 4</text><text class="label small" x="62.0" y="383">AC690V/50/60Hz, DC1200V</text><text class="label small" x="62.0" y="399">DS: DC1200V, 1042A</text><text class="label small" x="62.0" y="415">FUSE: TBD</text><line class="thin" x1="40.0" x2="460.0" y1="421.0" y2="421.0" /><text class="label title" x="50.0" y="437">Power Cable</text><text class="label small" x="62.0" y="453">TBD</text><line class="thin" x1="40.0" x2="460.0" y1="459.0" y2="459.0" /><text class="label title" x="50.0" y="475">Battery Storage Bank (BAT)</text><text class="label small" x="62.0" y="491">1~80 BESS</text><rect class="dash" height="414.0" width="860.0" x="500.0" y="40" /><text class="label title" text-anchor="end" x="1352.0" y="58">AC Block (PCS&amp;MV SKID)</text><text class="label" x="560.0" y="82">To 33kV Switchgear</text><text class="label" text-anchor="end" x="1300.0" y="82">To Other RMU</text><polygon class="thin" fill="none" points="570.0,90.0 564.0,100 576.0,100" /><line class="thin" x1="570.0" x2="570.0" y1="100" y2="119.0" /><circle class="outline" cx="570.0" cy="126" r="7.0" /><line class="thin" x1="565.1" x2="574.9" y1="121.1" y2="130.9" /><line class="thin" x1="565.1" x2="574.9" y1="130.9" y2="121.1" /><line class="thin" x1="570.0" x2="570.0" y1="133.0" y2="139.0" /><line class="thin" x1="570.0" x2="575.4" y1="139.0" y2="144.4" /><line class="thin" x1="567.6" x2="572.4" y1="151.0" y2="151.0" /><line class="thin" x1="570.0" x2="570.0" y1="151.0" y2="180" /><polygon class="thin" fill="none" points="1290.0,90.0 1284.0,100 1296.0,100" /><line class="thin" x1="1290.0" x2="1290.0" y1="100" y2="119.0" /><circle class="outline" cx="1290.0" cy="126" r="7.0" /><line class="thin" x1="1285.1" x2="1294.9" y1="121.1" y2="130.9" /><line class="thin" x1="1285.1" x2="1294.9" y1="130.9" y2="121.1" /><line class="thin" x1="1290.0" x2="1290.0" y1="133.0" y2="139.0" /><line class="thin" x1="1290.0" x2="1295.4" y1="139.0" y2="144.4" /><line class="thin" x1="1287.6" x2="1292.4" y1="151.0" y2="151.0" /><line class="thin" x1="1290.0" x2="1290.0" y1="151.0" y2="180" /><line class="thin" x1="550.0" x2="1310.0" y1="180" y2="180" /><text class="label" x="544.0" y="110">RMU</text><line class="thin" x1="930.0" x2="930.0" y1="180" y2="190" /><line class="thin" x1="930.0" x2="935.4" y1="190" y2="195.4" /><line class="thin" x1="927.6" x2="932.4" y1="202.0" y2="202.0" /><line class="thin" x1="930.0" x2="930.0" y1="202.0" y2="194.0" /><circle class="outline" cx="930.0" cy="210" r="16.0" /><circle class="outline" cx="907.6" cy="232.4" r="16.0" /><circle class="outline" cx="952.4" cy="232.4" r="16.0" /><polygon class="thin" fill="none" points="930.0,201.2 922.0,215.6 938.0,215.6" /><line class="thin" x1="907.6" x2="907.6" y1="232.4" y2="222.8" /><line class="thin" x1="907.6" x2="899.6" y1="232.4" y2="238.0" /><line class="thin" x1="907.6" x2="915.6" y1="232.4" y2="238.0" /><line class="thin" x1="952.4" x2="952.4" y1="232.4" y2="222.8" /><line class="thin" x1="952.4" x2="944.4" y1="232.4" y2="238.0" /><line class="thin" x1="952.4" x2="960.4" y1="232.4" y2="238.0" /><line class="thin" x1="907.6" x2="907.6" y1="248.4" y2="270" /><line class="thin" x1="952.4" x2="952.4" y1="248.4" y2="270" /><text class="label" x="986.0" y="194.0">Transformer</text><text class="label" x="986.0" y="210.0">33.0 kV/690 V</text><text class="label" x="986.0" y="226.0">5.0 MVA</text><text class="label" x="986.0" y="242.0">Dyn11</text><text class="label" x="986.0" y="258.0">Uk=7.0%</text><text class="label" x="986.0" y="274.0">ONAN</text><line class="busbar" x1="580.0" x2="1280.0" y1="270" y2="270" /><text class="label" x="580.0" y="262">LV Busbar</text><rect class="outline" height="80.0" width="80.0" x="612.5" y="294" /><text class="label" x="618.5" y="288">PCS-1</text><line class="thin" x1="631.892" x2="673.1080000000001" y1="324.592" y2="359.408" /><line class="thin" x1="631.892" x2="646.3176000000001" y1="353.14112" y2="353.14112" /><line class="thin" x1="631.892" x2="646.3176000000001" y1="348.96320000000003" y2="348.96320000000003" /><polyline class="thin" fill="none" points="658.6824,330.85888 661.0866666666667,334.47706485497906 663.4909333333334,334.47706485497906 665.8952,330.85888 668.2994666666667,327.24069514502094 670.7037333333334,327.24069514502094 673.1080000000001,330.85888" /><line class="thin" x1="648.5" x2="656.5" y1="276.0" y2="284.0" /><line class="thin" x1="648.5" x2="656.5" y1="284.0" y2="276.0" /><line class="thin" x1="652.5" x2="652.5" y1="270" y2="276.0" /><line class="thin" x1="652.5" x2="657.9" y1="276.0" y2="281.4" /><line class="thin" x1="650.1" x2="654.9" y1="288.0" y2="288.0" /><line class="thin" x1="652.5" x2="652.5" y1="288.0" y2="294" /><rect class="outline" height="80.0" width="80.0" x="797.5" y="294" /><text class="label" x="803.5" y="288">PCS-2</text><line class="thin" x1="816.892" x2="858.1080000000001" y1="324.592" y2="359.408" /><line class="thin" x1="816.892" x2="831.3176000000001" y1="353.14112" y2="353.14112" /><line class="thin" x1="816.892" x2="831.3176000000001" y1="348.96320000000003" y2="348.96320000000003" /><polyline class="thin" fill="none" points="843.6824,330.85888 846.0866666666667,334.47706485497906 848.4909333333334,334.47706485497906 850.8952,330.85888 853.2994666666667,327.24069514502094 855.7037333333334,327.24069514502094 858.1080000000001,330.85888" /><line class="thin" x1="833.5" x2="841.5" y1="276.0" y2="284.0" /><line class="thin" x1="833.5" x2="841.5" y1="284.0" y2="276.0" /><line class="thin" x1="837.5" x2="837.5" y1="270" y2="276.0" /><line class="thin" x1="837.5" x2="842.9" y1="276.0" y2="281.4" /><line class="thin" x1="835.1" x2="839.9" y1="288.0" y2="288.0" /><line class="thin" x1="837.5" x2="837.5" y1="288.0" y2="294" /><rect class="outline" height="80.0" width="80.0" x="982.5" y="294" /><text class="label" x="988.5" y="288">PCS-3</text><line class="thin" x1="1001.892" x2="1043.108" y1="324.592" y2="359.408" /><line class="thin" x1="1001.892" x2="1016.3176000000001" y1="353.14112" y2="353.14112" /><line class="thin" x1="1001.892" x2="1016.3176000000001" y1="348.96320000000003" y2="348.96320000000003" /><polyline class="thin" fill="none" points="1028.6824000000001,330.85888 1031.0866666666668,334.47706485497906 1033.4909333333335,334.47706485497906 1035.8952,330.85888 1038.2994666666666,327.24069514502094 1040.7037333333333,327.24069514502094 1043.108,330.85888" /><line class="thin" x1="1018.5" x2="1026.5" y1="276.0" y2="284.0" /><line class="thin" x1="1018.5" x2="1026.5" y1="284.0" y2="276.0" /><line class="thin" x1="1022.5" x2="1022.5" y1="270" y2="276.0" /><line class="thin" x1="1022.5" x2="1027.9" y1="276.0" y2="281.4" /><line class="thin" x1="1020.1" x2="1024.9" y1="288.0" y2="288.0" /><line class="thin" x1="1022.5" x2="1022.5" y1="288.0" y2="294" /><rect class="outline" height="80.0" width="80.0" x="1167.5" y="294" /><text class="label" x="1173.5" y="288">PCS-4</text><line class="thin" x1="1186.8919999999998" x2="1228.1079999999997" y1="324.592" y2="359.408" /><line class="thin" x1="1186.8919999999998" x2="1201.3175999999999" y1="353.14112" y2="353.14112" /><line class="thin" x1="1186.8919999999998" x2="1201.3175999999999" y1="348.96320000000003" y2="348.96320000000003" /><polyline class="thin" fill="none" points="1213.6824,330.85888 1216.0866666666666,334.47706485497906 1218.4909333333333,334.47706485497906 1220.8952,330.85888 1223.2994666666664,327.24069514502094 1225.703733333333,327.24069514502094 1228.1079999999997,330.85888" /><line class="thin" x1="1203.5" x2="1211.5" y1="276.0" y2="284.0" /><line class="thin" x1="1203.5" x2="1211.5" y1="284.0" y2="276.0" /><line class="thin" x1="1207.5" x2="1207.5" y1="270" y2="276.0" /><line class="thin" x1="1207.5" x2="1212.9" y1="276.0" y2="281.4" /><line class="thin" x1="1205.1" x2="1209.9" y1="288.0" y2="288.0" /><line class="thin" x1="1207.5" x2="1207.5" y1="288.0" y2="294" /><rect class="dash" height="230.0" width="780.0" x="540.0" y="494.0" /><text class="label title" text-anchor="end" x="1312.0" y="510.0">DC Block (BESS)</text><line class="thin" x1="652.5" x2="652.5" y1="374.0" y2="380.0" /><line class="thin" x1="652.5" x2="658.8" y1="380.0" y2="386.3" /><line class="thin" x1="649.7" x2="655.3" y1="394.0" y2="394.0" /><line class="thin" x1="652.5" x2="652.5" y1="394.0" y2="402.0" /><rect class="thin" height="10.0" width="8.0" x="648.5" y="402.0" /><line class="thin" x1="652.5" x2="652.5" y1="412.0" y2="540.0" /><polygon class="thin" fill="none" points="652.5,532.0 647.7,540.0 657.3,540.0" /><line class="thin" x1="652.5" x2="652.5" y1="540.0" y2="544.0" /><line class="thin" x1="652.5" x2="652.5" y1="561.6" y2="666.4" /><line class="thin" x1="644.94" x2="660.06" y1="570.32" y2="570.32" /><line class="thin" x1="647.964" x2="657.036" y1="573.68" y2="573.68" /><line class="thin" x1="644.94" x2="660.06" y1="587.1200000000001" y2="587.1200000000001" /><line class="thin" x1="647.964" x2="657.036" y1="590.48" y2="590.48" /><line class="thin" x1="644.94" x2="660.06" y1="603.9200000000001" y2="603.9200000000001" /><line class="thin" x1="647.964" x2="657.036" y1="607.28" y2="607.28" /><line class="thin" x1="644.94" x2="660.06" y1="620.72" y2="620.72" /><line class="thin" x1="647.964" x2="657.036" y1="624.0799999999999" y2="624.0799999999999" /><line class="thin" x1="644.94" x2="660.06" y1="637.5200000000001" y2="637.5200000000001" /><line class="thin" x1="647.964" x2="657.036" y1="640.88" y2="640.88" /><line class="thin" x1="644.94" x2="660.06" y1="654.32" y2="654.32" /><line class="thin" x1="647.964" x2="657.036" y1="657.68" y2="657.68" /><line class="thin" x1="651.0" x2="654.0" y1="608.96" y2="608.96" /><line class="thin" x1="651.0" x2="654.0" y1="614.0" y2="614.0" /><line class="thin" x1="651.0" x2="654.0" y1="619.04" y2="619.04" /><line class="thin" x1="837.5" x2="837.5" y1="374.0" y2="380.0" /><line class="thin" x1="837.5" x2="843.8" y1="380.0" y2="386.3" /><line class="thin" x1="834.7" x2="840.3" y1="394.0" y2="394.0" /><line class="thin" x1="837.5" x2="837.5" y1="394.0" y2="402.0" /><rect class="thin" height="10.0" width="8.0" x="833.5" y="402.0" /><line class="thin" x1="837.5" x2="837.5" y1="412.0" y2="540.0" /><polygon class="thin" fill="none" points="837.5,532.0 832.7,540.0 842.3,540.0" /><line class="thin" x1="837.5" x2="837.5" y1="540.0" y2="544.0" /><line class="thin" x1="837.5" x2="837.5" y1="561.6" y2="666.4" /><line class="thin" x1="829.94" x2="845.06" y1="570.32" y2="570.32" /><line class="thin" x1="832.964" x2="842.036" y1="573.68" y2="573.68" /><line class="thin" x1="829.94" x2="845.06" y1="587.1200000000001" y2="587.1200000000001" /><line class="thin" x1="832.964" x2="842.036" y1="590.48" y2="590.48" /><line class="thin" x1="829.94" x2="845.06" y1="603.9200000000001" y2="603.9200000000001" /><line class="thin" x1="832.964" x2="842.036" y1="607.28" y2="607.28" /><line class="thin" x1="829.94" x2="845.06" y1="620.72" y2="620.72" /><line class="thin" x1="832.964" x2="842.036" y1="624.0799999999999" y2="624.0799999999999" /><line class="thin" x1="829.94" x2="845.06" y1="637.5200000000001" y2="637.5200000000001" /><line class="thin" x1="832.964" x2="842.036" y1="640.88" y2="640.88" /><line class="thin" x1="829.94" x2="845.06" y1="654.32" y2="654.32" /><line class="thin" x1="832.964" x2="842.036" y1="657.68" y2="657.68" /><line class="thin" x1="836.0" x2="839.0" y1="608.96" y2="608.96" /><line class="thin" x1="836.0" x2="839.0" y1="614.0" y2="614.0" /><line class="thin" x1="836.0" x2="839.0" y1="619.04" y2="619.04" /><line class="thin" x1="1022.5" x2="1022.5" y1="374.0" y2="380.0" /><line class="thin" x1="1022.5" x2="1028.8" y1="380.0" y2="386.3" /><line class="thin" x1="1019.7" x2="1025.3" y1="394.0" y2="394.0" /><line class="thin" x1="1022.5" x2="1022.5" y1="394.0" y2="402.0" /><rect class="thin" height="10.0" width="8.0" x="1018.5" y="402.0" /><line class="thin" x1="1022.5" x2="1022.5" y1="412.0" y2="540.0" /><polygon class="thin" fill="none" points="1022.5,532.0 1017.7,540.0 1027.3,540.0" /><line class="thin" x1="1022.5" x2="1022.5" y1="540.0" y2="544.0" /><line class="thin" x1="1022.5" x2="1022.5" y1="561.6" y2="666.4" /><line class="thin" x1="1014.94" x2="1030.06" y1="570.32" y2="570.32" /><line class="thin" x1="1017.964" x2="1027.036" y1="573.68" y2="573.68" /><line class="thin" x1="1014.94" x2="1030.06" y1="587.1200000000001" y2="587.1200000000001" /><line class="thin" x1="1017.964" x2="1027.036" y1="590.48" y2="590.48" /><line class="thin" x1="1014.94" x2="1030.06" y1="603.9200000000001" y2="603.9200000000001" /><line class="thin" x1="1017.964" x2="1027.036" y1="607.28" y2="607.28" /><line class="thin" x1="1014.94" x2="1030.06" y1="620.72" y2="620.72" /><line class="thin" x1="1017.964" x2="1027.036" y1="624.0799999999999" y2="624.0799999999999" /><line class="thin" x1="1014.94" x2="1030.06" y1="637.5200000000001" y2="637.5200000000001" /><line class="thin" x1="1017.964" x2="1027.036" y1="640.88" y2="640.88" /><line class="thin" x1="1014.94" x2="1030.06" y1="654.32" y2="654.32" /><line class="thin" x1="1017.964" x2="1027.036" y1="657.68" y2="657.68" /><line class="thin" x1="1021.0" x2="1024.0" y1="608.96" y2="608.96" /><line class="thin" x1="1021.0" x2="1024.0" y1="614.0" y2="614.0" /><line class="thin" x1="1021.0" x2="1024.0" y1="619.04" y2="619.04" /><line class="thin" x1="1207.5" x2="1207.5" y1="374.0" y2="380.0" /><line class="thin" x1="1207.5" x2="1213.8" y1="380.0" y2="386.3" /><line class="thin" x1="1204.7" x2="1210.3" y1="394.0" y2="394.0" /><line class="thin" x1="1207.5" x2="1207.5" y1="394.0" y2="402.0" /><rect class="thin" height="10.0" width="8.0" x="1203.5" y="402.0" /><line class="thin" x1="1207.5" x2="1207.5" y1="412.0" y2="540.0" /><polygon class="thin" fill="none" points="1207.5,532.0 1202.7,540.0 1212.3,540.0" /><line class="thin" x1="1207.5" x2="1207.5" y1="540.0" y2="544.0" /><line class="thin" x1="1207.5" x2="1207.5" y1="561.6" y2="666.4" /><line class="thin" x1="1199.94" x2="1215.06" y1="570.32" y2="570.32" /><line class="thin" x1="1202.964" x2="1212.036" y1="573.68" y2="573.68" /><line class="thin" x1="1199.94" x2="1215.06" y1="587.1200000000001" y2="587.1200000000001" /><line class="thin" x1="1202.964" x2="1212.036" y1="590.48" y2="590.48" /><line class="thin" x1="1199.94" x2="1215.06" y1="603.9200000000001" y2="603.9200000000001" /><line class="thin" x1="1202.964" x2="1212.036" y1="607.28" y2="607.28" /><line class="thin" x1="1199.94" x2="1215.06" y1="620.72" y2="620.72" /><line class="thin" x1="1202.964" x2="1212.036" y1="624.0799999999999" y2="624.0799999999999" /><line class="thin" x1="1199.94" x2="1215.06" y1="637.5200000000001" y2="637.5200000000001" /><line class="thin" x1="1202.964" x2="1212.036" y1="640.88" y2="640.88" /><line class="thin" x1="1199.94" x2="1215.06" y1="654.32" y2="654.32" /><line class="thin" x1="1202.964" x2="1212.036" y1="657.68" y2="657.68" /><line class="thin" x1="1206.0" x2="1209.0" y1="608.96" y2="608.96" /><line class="thin" x1="1206.0" x2="1209.0" y1="614.0" y2="614.0" /><line class="thin" x1="1206.0" x2="1209.0" y1="619.04" y2="619.04" /></svg>